<svg width="98" height="98" viewBox="0 0 98 98" fill="none" xmlns="http://www.w3.org/2000/svg">
<path d="M58.7192 49.5698C56.9002 48.9713 54.2815 49.0999 50.8632 49.0999H37.1301V67.0252H51.8164C54.1108 67.0252 55.7226 66.7797 56.6508 66.6083C58.2867 66.3152 59.6544 65.7479 60.7534 65.0636C61.8515 64.3809 62.7548 63.3451 63.464 62.0389C64.1716 60.7327 64.5263 59.2043 64.5263 57.4952C64.5263 55.4938 64.0134 53.9569 62.987 52.4792C61.9614 51.0015 60.539 50.1684 58.7192 49.5698ZM56.8339 41.3741C58.6397 40.8379 60.0013 39.9011 60.917 38.6564C61.8336 37.411 62.291 35.8265 62.291 33.9459C62.291 32.1643 61.8632 30.5838 61.0082 29.2277C60.1532 27.8716 58.9335 27.3471 57.346 26.8459C55.7584 26.3464 53.0361 26.4984 49.1782 26.4984H37.1301V42.0856H50.0574C53.2076 42.0856 55.4654 41.7895 56.8339 41.3741ZM97.9204 12.9569C97.9204 5.8008 92.1196 0 84.9635 0H13.4569C6.3008 0 0.5 5.8008 0.5 12.9569V84.4635C0.5 91.6196 6.3008 97.4204 13.4569 97.4204H84.9635C92.1196 97.4204 97.9204 91.6196 97.9204 84.4635V12.9569ZM70.2943 64.4884C69.2328 66.6496 67.9196 68.3159 66.357 69.488C64.7936 70.6602 62.8335 71.6547 60.4775 72.2532C58.1222 72.8525 55.2339 73.2601 51.8164 73.2601H30.1158V19.4841H51.4859C55.5885 19.4841 58.8782 19.9587 61.3566 21.0444C63.8357 22.1316 65.7764 23.7698 67.1815 26.0284C68.5852 28.287 69.2874 30.6321 69.2874 33.098C69.2874 35.3932 68.6639 37.5466 67.4193 39.573C66.1738 41.6009 64.2932 43.2313 61.779 44.4767C65.0258 45.4291 67.5229 47.0517 69.2687 49.3462C71.0145 51.6414 71.8873 54.3512 71.8873 57.4765C71.8873 59.9915 71.3566 62.328 70.2943 64.4884Z" fill="#5B4282"/>
</svg>
