<svg width="98" height="111" viewBox="0 0 98 111" fill="none" xmlns="http://www.w3.org/2000/svg">
<path d="M9.36286 99.4447L0.5 0H97.9204L89.0457 99.429L49.151 110.49L9.36286 99.4447Z" fill="#1572B6"/>
<path d="M49.2102 102.037L81.4495 93.0994L89.0339 8.13281H49.2102V102.037Z" fill="#33A9DC"/>
<path d="M49.2102 44.1604H65.3496L66.4624 31.6712H49.2102V19.4739H49.2536H79.7922L79.5002 22.7452L76.5051 56.3577H49.2102V44.1604Z" fill="#DBDBDB"/>
<path d="M49.2851 75.8354L49.2298 75.8512L35.6475 72.1814L34.7794 62.4543H28.1776H22.5347L24.2434 81.6046L49.2259 88.5418L49.2851 88.526V75.8354Z" fill="#EBEBEB"/>
<path d="M64.3118 55.8406L62.8438 72.1733L49.2418 75.8432V88.5337L74.244 81.6044L74.4295 79.5446L76.5485 55.8406H64.3118Z" fill="#DBDBDB"/>
<path d="M49.2536 19.4739V27.0503V31.6396V31.6712H19.8317H19.7923L19.5476 28.9286L18.9912 22.7452L18.6992 19.4739H49.2536Z" fill="#EBEBEB"/>
<path d="M49.2102 44.1604V51.7368V56.3261V56.3577H35.837H35.7975L35.5529 53.6152L35.0004 47.4317L34.7084 44.1604H49.2102Z" fill="#EBEBEB"/>
</svg>
