<svg width="48" height="49" viewBox="0 0 48 49" fill="none" xmlns="http://www.w3.org/2000/svg">
<g clip-path="url(#clip0_17_53)">
<path d="M48 24.6733C48 11.4185 37.2548 0.67334 24 0.67334C10.7452 0.67334 0 11.4185 0 24.6733C0 37.9282 10.7452 48.6733 24 48.6733C37.2548 48.6733 48 37.9282 48 24.6733Z" fill="#242323"/>
<path fill-rule="evenodd" clip-rule="evenodd" d="M31.4225 47.5021C29.0849 48.2624 26.5901 48.6734 24 48.6734C21.4081 48.6734 18.9118 48.2618 16.5728 47.5006C17.6533 47.6301 18.0525 46.9266 18.0525 46.3192C18.0525 46.0548 18.048 45.5884 18.0419 44.9645C18.035 44.2426 18.0259 43.3098 18.0195 42.2349C11.343 43.6863 9.9345 39.0152 9.9345 39.0152C8.844 36.2414 7.2705 35.5028 7.2705 35.5028C5.091 34.0122 7.4355 34.0424 7.4355 34.0424C9.843 34.2121 11.1105 36.5176 11.1105 36.5176C13.2525 40.1878 16.728 39.1281 18.096 38.5125C18.3135 36.9605 18.9345 35.902 19.62 35.3017C14.2905 34.6954 8.688 32.6359 8.688 23.4331C8.688 20.8107 9.6225 18.6674 11.1585 16.9876C10.911 16.3799 10.0875 13.9391 11.3925 10.6323C11.3925 10.6323 13.4085 9.98676 17.9925 13.094C19.908 12.561 21.96 12.2956 24.0015 12.2848C26.04 12.2952 28.0935 12.561 30.0105 13.094C34.5915 9.98676 36.603 10.6323 36.603 10.6323C37.9125 13.9391 37.089 16.3799 36.8415 16.9876C38.3805 18.6674 39.309 20.8107 39.309 23.4331C39.309 32.6583 33.6975 34.6895 28.3515 35.2838C29.2125 36.0253 29.9805 37.4902 29.9805 39.7314C29.9805 41.8783 29.9671 43.7473 29.9582 44.9859C29.9538 45.5995 29.9505 46.0584 29.9505 46.3196C29.9505 46.9298 30.3401 47.6347 31.4225 47.5021Z" fill="white"/>
</g>
<defs>
<clipPath id="clip0_17_53">
<rect width="48" height="48" fill="white" transform="translate(0 0.67334)"/>
</clipPath>
</defs>
</svg>
