<svg width="98" height="111" viewBox="0 0 98 111" fill="none" xmlns="http://www.w3.org/2000/svg">
<path d="M9.36609 99.4367L0.5 0H97.9204L89.0425 99.4209L49.151 110.481L9.36609 99.4367Z" fill="#E44F26"/>
<path d="M49.2101 102.029L81.4468 93.092L89.0305 8.1322H49.2101V102.029Z" fill="#F1662A"/>
<path d="M49.2101 45.0092H33.072L31.9593 32.5209H49.2101V20.3246H49.1667H18.6306L18.9226 23.5996L21.9174 57.2054H49.2101V45.0092Z" fill="#EBEBEB"/>
<path d="M49.2101 76.6816L49.1549 76.6974L35.5736 73.0318L34.7056 63.3055H28.1043H22.4619L24.1704 82.4503L49.1549 89.3869L49.2101 89.3711V76.6816Z" fill="#EBEBEB"/>
<path d="M49.1667 45.0092V57.2054H64.1842L62.7717 73.0239L49.1667 76.6935V89.383L74.1709 82.4503L74.3524 80.3906L77.217 48.2841L77.5169 45.0092H74.2301H49.1667Z" fill="#DBDBDB"/>
<path d="M49.1667 20.3246V27.9004V32.4933V32.5209H78.5862H78.6257L78.8703 29.7825L79.4267 23.5996L79.7186 20.3246H49.1667Z" fill="#DBDBDB"/>
</svg>
