<svg width="48" height="49" viewBox="0 0 48 49" fill="none" xmlns="http://www.w3.org/2000/svg">
<g clip-path="url(#clip0_17_59)">
<path d="M12.1718 48.0035C10.3152 47.9827 8.47601 47.6422 6.73506 46.9969C5.46374 46.5269 4.31351 45.7788 3.36847 44.8072C2.39424 43.8641 1.64503 42.7135 1.17647 41.4411C0.531648 39.7002 0.191615 37.8612 0.171294 36.0049C0.0287059 32.9188 0 31.9931 0 24.1733C0 16.3536 0.0315294 15.4312 0.169882 12.3428C0.192669 10.4871 0.533121 8.64909 1.17647 6.9084C1.64731 5.63687 2.39546 4.48618 3.36659 3.53993C4.31046 2.56658 5.46123 1.81806 6.73365 1.34981C8.4746 0.704454 10.3137 0.363941 12.1704 0.343222C15.2574 0.202046 16.1845 0.17334 24 0.17334C31.8155 0.17334 32.7421 0.204869 35.8306 0.343222C37.6867 0.365848 39.5252 0.706302 41.2664 1.34981C42.5382 1.81867 43.6887 2.56693 44.6329 3.53946C45.6058 4.48404 46.3543 5.6348 46.8235 6.90699C47.469 8.64791 47.8097 10.4871 47.8306 12.3437C47.9718 15.4322 48.0005 16.3569 48.0005 24.1743C48.0005 31.9917 47.9718 32.9164 47.8306 36.0049C47.8082 37.8612 47.4676 39.6999 46.8235 41.4411C46.3364 42.7038 45.5902 43.8504 44.6331 44.8073C43.676 45.7642 42.5291 46.51 41.2664 46.9969C39.5254 47.6424 37.6863 47.983 35.8296 48.0039C32.744 48.1451 31.8165 48.1738 23.9991 48.1738C16.1816 48.1738 15.2569 48.1465 12.1713 48.0039" fill="url(#paint0_radial_17_59)"/>
<path d="M12.1718 48.0035C10.3152 47.9827 8.47601 47.6422 6.73506 46.9969C5.46374 46.5269 4.31351 45.7788 3.36847 44.8072C2.39424 43.8641 1.64503 42.7135 1.17647 41.4411C0.531648 39.7002 0.191615 37.8612 0.171294 36.0049C0.0287059 32.9188 0 31.9931 0 24.1733C0 16.3536 0.0315294 15.4312 0.169882 12.3428C0.192669 10.4871 0.533121 8.64909 1.17647 6.9084C1.64731 5.63687 2.39546 4.48618 3.36659 3.53993C4.31046 2.56658 5.46123 1.81806 6.73365 1.34981C8.4746 0.704454 10.3137 0.363941 12.1704 0.343222C15.2574 0.202046 16.1845 0.17334 24 0.17334C31.8155 0.17334 32.7421 0.204869 35.8306 0.343222C37.6867 0.365848 39.5252 0.706302 41.2664 1.34981C42.5382 1.81867 43.6887 2.56693 44.6329 3.53946C45.6058 4.48404 46.3543 5.6348 46.8235 6.90699C47.469 8.64791 47.8097 10.4871 47.8306 12.3437C47.9718 15.4322 48.0005 16.3569 48.0005 24.1743C48.0005 31.9917 47.9718 32.9164 47.8306 36.0049C47.8082 37.8612 47.4676 39.6999 46.8235 41.4411C46.3364 42.7038 45.5902 43.8504 44.6331 44.8073C43.676 45.7642 42.5291 46.51 41.2664 46.9969C39.5254 47.6424 37.6863 47.983 35.8296 48.0039C32.744 48.1451 31.8165 48.1738 23.9991 48.1738C16.1816 48.1738 15.2569 48.1465 12.1713 48.0039" fill="url(#paint1_radial_17_59)"/>
<path d="M18.1068 24.2754C18.1069 23.0998 18.4556 21.9506 19.1089 20.9731C19.7621 19.9957 20.6905 19.2339 21.7767 18.7841C22.8629 18.3343 24.0581 18.2167 25.2111 18.4462C26.3641 18.6757 27.4232 19.2419 28.2544 20.0733C29.0856 20.9047 29.6516 21.9639 29.8808 23.117C30.11 24.2701 29.9921 25.4652 29.5421 26.5513C29.092 27.6374 28.33 28.5656 27.3524 29.2186C26.3748 29.8716 25.2255 30.2201 24.0499 30.2199C22.4735 30.2196 20.9618 29.5932 19.8473 28.4784C18.7328 27.3636 18.1067 25.8518 18.1068 24.2754ZM14.8932 24.2754C14.8932 26.0864 15.4302 27.8568 16.4364 29.3626C17.4425 30.8684 18.8726 32.042 20.5458 32.7351C22.2189 33.4281 24.06 33.6095 25.8363 33.2562C27.6125 32.9028 29.2441 32.0307 30.5247 30.7502C31.8053 29.4696 32.6773 27.838 33.0307 26.0618C33.384 24.2856 33.2026 22.4444 32.5096 20.7713C31.8165 19.0981 30.6429 17.668 29.1371 16.6619C27.6313 15.6557 25.8609 15.1187 24.0499 15.1187C22.8474 15.1186 21.6567 15.3554 20.5457 15.8156C19.4347 16.2757 18.4253 16.9502 17.575 17.8005C16.7247 18.6508 16.0502 19.6602 15.5901 20.7712C15.1299 21.8822 14.8931 23.0729 14.8932 24.2754ZM31.4292 14.7559C31.429 15.1791 31.5543 15.5928 31.7893 15.9448C32.0242 16.2968 32.3583 16.5712 32.7492 16.7333C33.1401 16.8955 33.5704 16.938 33.9855 16.8556C34.4006 16.7733 34.7819 16.5696 35.0813 16.2705C35.3807 15.9714 35.5847 15.5902 35.6674 15.1752C35.7502 14.7601 35.708 14.3299 35.5462 13.9388C35.3844 13.5478 35.1103 13.2135 34.7585 12.9782C34.4067 12.7429 33.9931 12.6172 33.5699 12.617C33.0026 12.6173 32.4587 12.8427 32.0575 13.2437C31.6562 13.6447 31.4306 14.1886 31.4301 14.7559M16.8466 38.7907C15.7158 38.7783 14.5956 38.5713 13.5351 38.1789C12.7659 37.8825 12.0674 37.4282 11.4844 36.8455C10.9014 36.2628 10.4469 35.5644 10.1501 34.7954C9.75755 33.7349 9.55061 32.6146 9.53837 31.4839C9.45178 29.6043 9.43484 29.0396 9.43484 24.2777C9.43484 19.5159 9.45366 18.9526 9.53837 17.0712C9.55208 15.9405 9.75898 14.8205 10.1501 13.7596C10.4466 12.9902 10.9009 12.2915 11.484 11.7085C12.067 11.1255 12.7657 10.6711 13.5351 10.3747C14.5956 9.98212 15.7158 9.77517 16.8466 9.76293C18.7261 9.67634 19.2908 9.6594 24.0508 9.6594C28.8108 9.6594 29.376 9.67775 31.2574 9.7634C32.3881 9.77712 33.508 9.98401 34.569 10.3752C35.3383 10.6716 36.037 11.126 36.62 11.709C37.203 12.292 37.6574 12.9907 37.9539 13.7601C38.3464 14.8206 38.5534 15.9409 38.5657 17.0716C38.6522 18.954 38.6692 19.5159 38.6692 24.2782C38.6692 29.0406 38.6518 29.6034 38.5657 31.4848C38.5525 32.6155 38.3456 33.7356 37.9539 34.7963C37.6571 35.5653 37.2026 36.2637 36.6196 36.8465C36.0366 37.4292 35.3381 37.8834 34.569 38.1799C33.5084 38.5724 32.3882 38.7794 31.2574 38.7916C29.3779 38.8782 28.8132 38.8952 24.0508 38.8952C19.2885 38.8952 18.7257 38.8778 16.8466 38.7916M16.6988 6.5521C15.2192 6.58119 13.7553 6.86124 12.3694 7.38033C11.1847 7.83838 10.1088 8.53895 9.21066 9.4371C8.31251 10.3352 7.61194 11.4112 7.15389 12.5959C6.63487 13.9818 6.35483 15.4457 6.32566 16.9253C6.23766 18.8265 6.2179 19.4344 6.2179 24.2773C6.2179 29.1201 6.23813 29.7276 6.32566 31.6293C6.35482 33.1089 6.63486 34.5728 7.15389 35.9587C7.61197 37.1434 8.31254 38.2193 9.21069 39.1174C10.1088 40.0156 11.1847 40.7161 12.3694 41.1742C13.7554 41.6931 15.2193 41.9731 16.6988 42.0025C18.601 42.089 19.208 42.1102 24.0508 42.1102C28.8937 42.1102 29.5012 42.09 31.4028 42.0025C32.8824 41.9732 34.3463 41.6932 35.7322 41.1742C36.9169 40.7161 37.9928 40.0156 38.891 39.1174C39.7891 38.2193 40.4897 37.1434 40.9478 35.9587C41.4675 34.573 41.7476 33.109 41.776 31.6293C41.8626 29.7267 41.8824 29.1201 41.8824 24.2773C41.8824 19.4344 41.8621 18.8269 41.776 16.9253C41.7469 15.4457 41.4669 13.9817 40.9478 12.5959C40.4897 11.4114 39.7893 10.3356 38.8914 9.43751C37.9936 8.53939 36.918 7.8387 35.7337 7.38033C34.3479 6.86091 32.8839 6.58085 31.4042 6.5521C29.5026 6.46504 28.8951 6.44434 24.0532 6.44434C19.2113 6.44434 18.6024 6.46457 16.6998 6.5521" fill="white"/>
</g>
<defs>
<radialGradient id="paint0_radial_17_59" cx="0" cy="0" r="1" gradientUnits="userSpaceOnUse" gradientTransform="translate(3.10635 47.122) scale(60.9421)">
<stop offset="0.09" stop-color="#FA8F21"/>
<stop offset="0.78" stop-color="#D82D7E"/>
</radialGradient>
<radialGradient id="paint1_radial_17_59" cx="0" cy="0" r="1" gradientUnits="userSpaceOnUse" gradientTransform="translate(33.248 45.5804) scale(53.6296)">
<stop offset="0.64" stop-color="#8C3AAA" stop-opacity="0"/>
<stop offset="1" stop-color="#8C3AAA"/>
</radialGradient>
<clipPath id="clip0_17_59">
<rect width="48" height="48" fill="white" transform="translate(0 0.17334)"/>
</clipPath>
</defs>
</svg>
