<svg width="100" height="99" viewBox="0 0 100 99" fill="none" xmlns="http://www.w3.org/2000/svg">
<path d="M70.8643 72.534C70.7818 72.765 70.4972 73.0207 70.4972 73.0207C95.0244 66.4991 86.0072 50.0321 74.2798 54.2025C73.2486 54.5737 72.7082 55.4276 72.7082 55.4276C72.7082 55.4276 73.3599 55.1636 74.8078 54.8583C80.7396 53.6043 89.2288 62.8815 70.8643 72.534ZM18.8109 92.0865C57.8829 98.4926 90.0291 89.199 79.8898 84.579C79.8898 84.579 82.6577 86.8848 76.8456 88.6668C65.7823 92.0576 30.8106 93.0765 21.0962 88.803C17.6064 87.2643 24.1569 85.1317 26.2112 84.6862C28.3562 84.216 29.5854 84.3026 29.5854 84.3026C25.7079 81.5347 4.48481 89.7352 18.8109 92.0865Z" fill="#4E7D9D"/>
<path d="M86.0938 89.6197C86.0938 89.6197 84.8604 92.8166 71.5243 95.3576C56.4845 98.2204 37.922 97.8862 26.9207 96.0506C26.9207 96.0506 29.177 97.9357 40.7559 98.6865C58.3862 99.8291 85.4544 98.0554 86.0938 89.6197ZM63.1794 68.2646C51.8521 70.4715 45.3099 70.3931 37.0228 69.531C30.6208 68.8586 34.8118 65.7195 34.8118 65.7195C18.2334 71.28 44.0394 77.5954 67.2013 70.7437C64.7428 69.8692 63.1794 68.2646 63.1794 68.2646Z" fill="#4E7D9D"/>
<path d="M38.6274 31.4614C34.061 38.3955 40.8714 45.8411 50.1444 54.3098C46.5267 46.0433 34.259 38.8039 50.1485 26.1112C69.965 10.2878 59.7927 0 59.7927 0C63.9012 16.3433 45.3305 21.2767 38.6274 31.4614Z" fill="#F2941B"/>
<path d="M37.1588 76.56C22.1108 80.8129 46.3122 89.6033 65.477 81.2996C62.3378 80.0621 60.0897 78.6349 60.0897 78.6349C51.5468 80.2766 47.5827 80.4045 39.8236 79.5053C33.4175 78.7628 37.1588 76.56 37.1588 76.56ZM66.467 60.5138C68.348 59.2144 70.9467 58.0924 70.9467 58.0924C70.9467 58.0924 63.5588 59.433 56.1916 60.06C47.1826 60.8231 37.5095 60.9716 32.6626 60.3158C21.1662 58.7648 38.9573 54.4913 38.9573 54.4913C38.9573 54.4913 32.048 54.021 23.5587 58.1708C13.5061 63.0836 48.4077 65.3194 66.467 60.5138Z" fill="#4E7D9D"/>
<path d="M27.0526 83.7375C20.4155 83.7375 6.51424 90.0653 18.815 92.0865C28.2695 93.6375 37.3197 94.2686 45.4625 94.2686C47.0094 94.2686 48.5232 94.248 50 94.2026V91.5833C48.647 91.6121 47.2899 91.6245 45.941 91.6245C35.5006 91.6245 25.5965 90.783 21.1002 88.803C17.6105 87.2644 24.161 85.1318 26.2152 84.6863C27.7827 84.3439 28.8594 84.2944 29.3296 84.2944C29.5029 84.2944 29.5895 84.3026 29.5895 84.3026C29.045 83.9108 28.1457 83.7375 27.0526 83.7375ZM26.9206 96.0506C26.9289 96.0506 29.1935 97.9358 40.7559 98.6865C43.6351 98.8721 46.7701 98.9835 49.9959 98.9959V97.4366C48.9234 97.4573 47.855 97.4696 46.7949 97.4696C39.2461 97.4696 32.213 96.9334 26.9206 96.0506ZM34.8117 65.7236C23.3979 69.5516 32.0769 73.7385 46.1514 73.7385C47.3971 73.7385 48.68 73.7055 50 73.6354V70.0013C48.7996 70.0631 47.6364 70.092 46.4937 70.092C43.3381 70.092 40.3186 69.8734 37.0227 69.531C30.6207 68.8628 34.8117 65.7236 34.8117 65.7236Z" fill="#446D89"/>
<path d="M50 20.8188C45.776 24.2302 41.2756 27.4353 38.6274 31.4613C34.0858 38.3583 40.8013 45.7668 50 54.1777V53.9921C46.2298 45.8823 34.5313 38.6883 50 26.2267V20.8188Z" fill="#D38118"/>
<path d="M37.1589 76.56C26.6195 79.5382 35.3315 84.7399 48.0778 84.7399C48.7089 84.7399 49.3524 84.7275 50 84.6986V80.0044C49.2782 80.0415 48.5604 80.058 47.8427 80.058C45.4172 80.058 42.9215 79.8641 39.8195 79.5011C33.4175 78.7627 37.1589 76.56 37.1589 76.56ZM38.285 54.4747C36.3545 54.4747 30.4805 54.7882 23.5588 58.1707C17.4084 61.1779 28.1004 63.1826 41.4613 63.1826C44.2374 63.1826 47.1249 63.096 50.0042 62.9145V60.4849C46.9104 60.6457 43.8868 60.7324 41.1519 60.7324C37.724 60.7324 34.7499 60.6004 32.6668 60.3157C21.1663 58.7647 38.9574 54.4912 38.9574 54.4912C38.9574 54.4912 38.7223 54.4747 38.285 54.4747Z" fill="#446D89"/>
<path d="M72.0564 20.2207C72.0564 20.2207 38.549 28.6811 54.5499 47.3343C59.273 52.833 53.3082 57.783 53.3082 57.783C53.3082 57.783 65.2955 51.5212 59.7886 43.6837C54.653 36.3742 50.7095 32.7442 72.0564 20.2207Z" fill="#F2941B"/>
<path d="M57.2022 26.8538C50.8786 31.3005 46.5927 38.0573 54.554 47.3344C59.2771 52.833 53.3123 57.783 53.3123 57.783C53.3123 57.783 55.247 56.7724 57.2022 55.0564V39.9053C55.5605 37.1993 54.9458 34.7325 57.2022 31.5439V26.8538Z" fill="#D38118"/>
</svg>
