<svg width="106" height="105" viewBox="0 0 106 105" fill="none" xmlns="http://www.w3.org/2000/svg">
<path d="M7.0625 6.5625H98.9375V98.4375H7.0625V6.5625Z" fill="#F5DE19"/>
<path d="M68.7796 78.3398C69.5636 79.9289 70.7801 81.2646 72.2892 82.1933C73.7984 83.122 75.5389 83.606 77.3108 83.5898C80.8874 83.5898 83.1744 81.8016 83.1744 79.3242C83.1744 76.3711 80.825 75.3145 76.8875 73.5919L74.7285 72.6666C68.4941 70.012 64.3597 66.6881 64.3597 59.6597C64.3597 53.1858 69.2816 48.2541 77.0024 48.2541C79.5016 48.074 81.9986 48.6336 84.1821 49.863C86.3655 51.0924 88.1388 52.9373 89.2808 55.1677L82.5313 59.4825C82.0913 58.3767 81.3257 57.4307 80.336 56.7698C79.3463 56.1088 78.1792 55.7641 76.9892 55.7813C76.47 55.7293 75.9457 55.786 75.4496 55.9479C74.9535 56.1098 74.4966 56.3732 74.1079 56.7214C73.7193 57.0696 73.4074 57.4949 73.1923 57.9703C72.9771 58.4457 72.8633 58.9607 72.8581 59.4825C72.8581 62.0714 74.4627 63.1214 78.1672 64.7325L80.3263 65.6578C87.6631 68.8045 91.8106 72.0103 91.8106 79.2192C91.8106 86.9925 85.7042 91.2516 77.5044 91.2516C74.3098 91.4531 71.125 90.7268 68.3336 89.1602C65.5422 87.5936 63.2631 85.2536 61.7708 82.4217L68.7796 78.3398ZM38.2803 79.088C39.6355 81.4931 40.8692 83.5275 43.8355 83.5275C46.6705 83.5275 48.462 82.4184 48.462 78.1036V48.7463H57.095V78.2184C57.095 87.1566 51.845 91.2253 44.203 91.2253C41.5017 91.373 38.819 90.6998 36.5074 89.2942C34.1959 87.8887 32.3638 85.8166 31.2519 83.3503L38.2803 79.088Z" fill="black"/>
</svg>
