<svg width="98" height="116" viewBox="0 0 98 116" fill="none" xmlns="http://www.w3.org/2000/svg">
<path d="M4.0596 15.8575L6.5505 19.9995L8.84633 23.8293C10.0377 25.8165 11.2292 27.8037 12.4188 29.7909L14.8565 33.8569L18.4116 39.7774L22.7605 47.045C24.0142 49.1375 25.2707 51.2291 26.5262 53.3207L26.6947 53.5652C26.8769 53.622 27.0216 53.5735 27.1718 53.5378C28.8266 53.1403 30.4814 52.7456 32.1362 52.3509C34.8203 51.7099 37.5045 51.0707 40.1877 50.4287L44.3929 49.4232C47.1054 48.7749 49.8197 48.1283 52.5332 47.4781C55.2768 46.8224 58.0186 46.1631 60.7614 45.5056C62.1478 45.1731 63.5343 44.8416 64.9217 44.511L72.9732 42.5916L81.7417 40.5036L82.2151 40.3754L82.086 40.119C81.2902 38.9908 80.4907 37.8644 79.6931 36.737L77.3295 33.3908L74.802 29.8211L72.3852 26.3989L69.9914 23.017L67.5179 19.5224L65.0948 16.1057L63.8164 14.3025C63.6213 14.025 63.4656 13.7274 63.3612 13.4032C63.1094 12.6193 63.3969 12.0982 63.8539 11.7127C64.1506 11.4618 64.4913 11.2786 64.8613 11.1697C65.3759 11.0176 65.8943 10.8729 66.4199 10.774C67.474 10.5753 68.5344 10.4059 69.593 10.2301C70.7872 10.0313 71.9823 9.84178 73.1783 9.64489C73.9338 9.52035 74.6893 9.38939 75.4457 9.26119L78.5291 8.74194C79.5264 8.57436 80.5255 8.4086 81.5228 8.24468L84.7903 7.71079L87.0586 7.32891C87.9194 7.18514 88.7821 7.04136 89.6438 6.90033C90.719 6.72542 91.7922 6.54867 92.8683 6.38017C93.5075 6.28035 94.1494 6.24464 94.785 6.42779C95.2621 6.56607 95.6953 6.78952 96.1 7.07433L96.6586 7.46445C96.7145 7.33532 96.6339 7.26572 96.5973 7.19155C95.7905 5.55964 94.6907 4.15668 93.295 2.98633C91.9955 1.89931 90.5367 1.09984 88.924 0.590672C87.9716 0.288468 86.9927 0.148355 85.9945 0.0732617L85.5046 0H12.9188L12.5259 0.0631882C11.6523 0.131871 10.7933 0.26191 9.948 0.4936C8.09723 1.00185 6.45251 1.88466 5.00193 3.1356C4.14843 3.87096 3.40391 4.69882 2.77203 5.6329C1.79673 7.07433 1.13097 8.64121 0.797625 10.3848L1.2198 11.1202C2.16579 12.7008 3.11269 14.2787 4.0596 15.8575ZM8.85915 96.285C9.74745 96.6266 10.6651 96.8665 11.612 96.9828L12.5708 97.0259C12.72 97.0451 12.8638 97.0717 13.0103 97.0717H42.5787C42.5311 97.0717 42.4881 96.9352 42.435 96.8427C41.271 94.8573 40.0961 92.9086 38.9459 90.9159C37.498 88.4048 36.0639 85.9002 34.6372 83.3763C33.1133 80.6803 31.6032 77.9824 30.0904 75.2791C28.6535 72.7085 27.2194 70.1407 25.7881 67.5683C24.9236 66.0133 24.0637 64.4583 23.201 62.9024L22.9703 62.5471L22.5508 62.6305C21.7193 62.8447 20.8896 63.0618 20.059 63.2797C18.9033 63.5838 17.7495 63.8933 16.5928 64.1955C13.9975 64.8713 11.4013 65.5426 8.80604 66.2166C6.16587 66.9016 3.58248 67.5884 0.940486 68.2707C0.780226 68.3128 1.41577 68.3275 0.5 68.3549V84.7518C1.41577 84.847 0.624545 85.021 0.644692 85.1886C0.705133 85.674 0.722532 86.163 0.808615 86.6447C1.12822 88.4369 1.80589 90.0761 2.84529 91.5697C4.36913 93.7602 6.37284 95.3271 8.85915 96.285ZM3.25281 59.2971C6.30782 58.5708 9.36283 57.8456 12.4178 57.1203L16.4436 56.1688C17.1139 56.0094 17.7879 55.8565 18.4528 55.677C19.0444 55.5168 19.1185 55.3208 18.8136 54.786C18.3731 54.0131 17.9253 53.2456 17.4784 52.4764L13.5516 45.7153L9.62565 38.9523C8.29412 36.6592 6.96168 34.3652 5.62923 32.0721L2.20791 26.1865L0.785721 23.6397C0.694144 23.484 1.41669 23.2999 0.500916 23.2175V59.972C0.500916 59.9473 0.687733 59.9262 0.805867 59.8978L3.25281 59.2971ZM97.2759 85.5687C96.078 85.9945 94.8811 86.4231 93.6833 86.8517C90.9571 87.8288 88.2317 88.8059 85.5055 89.784C83.9926 90.327 82.4798 90.8765 80.9642 91.4177C77.8771 92.5203 74.7882 93.6183 71.6993 94.7181C69.909 95.3555 68.1187 95.9315 66.3302 96.5717C65.8402 96.7484 65.3567 97.0717 64.8713 97.0717H85.413L85.8562 97.0295C86.3773 97.0076 86.892 96.9581 87.4048 96.8638C89.5138 96.4783 91.4021 95.6193 93.0743 94.2859C94.3582 93.2621 95.404 92.0368 96.2227 90.6082C97.0652 89.1374 97.5653 87.5596 97.8052 85.8892C97.8262 85.7454 97.8711 85.5888 97.7502 85.4396C97.5817 85.4267 97.4306 85.5128 97.2759 85.5687ZM95.5112 57.9848C94.6046 56.7457 93.698 55.5085 92.7932 54.2686C91.5459 52.557 90.2995 50.8436 89.0541 49.132C88.5477 48.4369 88.0348 47.7474 87.5394 47.045C87.391 46.8334 87.2207 46.7776 86.989 46.8398L86.8562 46.8783C84.5622 47.4351 82.2673 47.9919 79.9724 48.5477L75.8615 49.545L67.8192 51.4984C65.1671 52.1431 62.516 52.7878 59.8639 53.4315C57.1074 54.0991 54.351 54.7649 51.5963 55.4334C48.8847 56.0919 46.1741 56.7521 43.4634 57.4115C40.8415 58.0479 38.2197 58.6853 35.5978 59.3209C34.2123 59.657 32.8276 59.9921 31.443 60.331C31.2388 60.3804 31.019 60.3923 30.8028 60.5572L30.9878 60.9097C32.149 62.9153 33.3093 64.9199 34.4733 66.9236C35.7901 69.1929 37.1088 71.4612 38.4303 73.7278C39.8836 76.2187 41.3406 78.7086 42.7967 81.1995C43.6328 82.63 44.4643 84.0631 45.3077 85.4899C46.2446 87.0742 47.186 88.6567 48.1411 90.2318C48.4268 90.7034 48.751 91.153 49.078 91.5963C49.2977 91.8921 49.5697 92.1448 49.8902 92.3381C50.2199 92.5377 50.5771 92.6 50.9516 92.5157C51.1458 92.4718 51.3353 92.4076 51.5231 92.3426L52.2136 92.0871C54.7228 91.2281 57.232 90.3701 59.7439 89.5147C61.7028 88.8471 63.6634 88.1841 65.6241 87.5211C67.5701 86.8617 69.517 86.2042 71.4631 85.5476C73.3944 84.8947 75.3267 84.2426 77.259 83.5906C79.2343 82.923 81.2096 82.2554 83.1849 81.586C85.609 80.7636 88.033 79.9376 90.458 79.1171C92.7959 78.3258 95.1348 77.5392 97.4746 76.7507C97.6175 76.7022 97.7759 76.682 97.8949 76.5245L97.9096 76.1839C97.9096 71.3339 97.9087 66.4822 97.9151 61.6314C97.9151 61.3722 97.8455 61.1634 97.6898 60.9555C96.9563 59.9692 96.2356 58.9756 95.5112 57.9848ZM95.1092 12.2814C94.5643 11.5918 93.871 11.373 93.0221 11.5946C92.6521 11.6916 92.2721 11.7521 91.8957 11.8217C90.6585 12.0479 89.4222 12.2704 88.185 12.4948C86.3755 12.8235 84.5668 13.156 82.7563 13.4811C81.3241 13.7393 79.8891 13.9921 78.4559 14.2439L72.7039 15.2503C72.4622 15.2925 72.2186 15.3346 71.9869 15.4088C71.648 15.5177 71.5491 15.7302 71.7039 16.0489C71.8312 16.309 71.9887 16.558 72.159 16.7925C73.3477 18.4317 74.5437 20.0673 75.7379 21.7028C77.3844 23.9584 79.0328 26.2139 80.6803 28.4686C82.0741 30.3761 83.4697 32.2837 84.8654 34.1903C85.9615 35.6894 87.0586 37.1867 88.1557 38.6849L88.3728 38.9468C91.5294 38.1656 94.6815 37.3872 97.8876 36.5951L97.9096 36.1024C97.9096 29.5015 97.9087 22.9016 97.9151 16.3016C97.9151 16.0104 97.8437 15.776 97.6614 15.5452C96.8601 14.5351 96.0753 13.5131 95.2832 12.4957L95.1092 12.2814ZM97.6687 44.2619C96.2292 44.6072 94.785 44.9369 93.3106 45.327C93.4672 45.6045 97.5094 51.0615 97.7448 51.3198L97.8931 51.4013L97.9096 51.0689V48.7703C97.9114 47.4378 97.9151 46.1045 97.9114 44.772C97.9114 44.609 97.9563 44.4359 97.8455 44.2711L97.6687 44.2619ZM2.26744 115.387V99.6972H5.59443V112.64H11.9581V115.387H2.26744ZM24.289 115.387L23.1516 111.653H17.4317L16.2934 115.387H12.7091L18.2467 99.6331H22.3137L27.8733 115.387H24.289ZM22.3567 108.862C21.3054 105.478 20.7129 103.564 20.581 103.12C20.4491 102.676 20.3539 102.326 20.2962 102.069C20.0599 102.985 19.3841 105.25 18.2678 108.862H22.3567ZM33.1747 109.367V115.387H29.8477V99.6972H34.4192C36.5511 99.6972 38.129 100.085 39.1519 100.861C40.1748 101.637 40.6868 102.816 40.6868 104.397C40.6868 105.32 40.4331 106.141 39.9248 106.859C39.4166 107.578 38.6977 108.142 37.7682 108.55C40.1291 112.077 41.6675 114.356 42.3828 115.386H38.6913L34.9458 109.366L33.1747 109.367ZM33.1747 106.663H34.248C35.2993 106.663 36.0759 106.488 36.5768 106.137C37.0777 105.786 37.3277 105.236 37.3277 104.484C37.3277 103.74 37.0722 103.21 36.5603 102.896C36.0484 102.582 35.2562 102.423 34.183 102.423H33.1747V106.663ZM53.9618 115.387L52.8244 111.653H47.1045L45.9662 115.387H42.3818L47.9195 99.6331H51.9864L57.5461 115.387H53.9618ZM52.0304 108.862C50.9791 105.478 50.3866 103.564 50.2547 103.12C50.1229 102.676 50.0276 102.326 49.9699 102.069C49.7337 102.985 49.0578 105.25 47.9415 108.862H52.0304ZM68.4712 99.6972H71.8303L66.4959 115.387H62.8685L57.5461 99.6972H60.9051L63.8567 109.033C64.0215 109.585 64.1909 110.227 64.3667 110.96C64.5426 111.694 64.6516 112.203 64.6937 112.49C64.7724 111.831 65.0408 110.679 65.4986 109.034L68.4712 99.6972ZM82.8406 115.387H73.8047V99.6972H82.8406V102.423H77.1317V105.869H82.4441V108.595H77.1317V112.64H82.8406V115.387ZM86.1135 115.387V99.6972H89.4405V112.64H95.8042V115.387H86.1135Z" fill="#FD4F31"/>
</svg>
