<svg width="48" height="49" viewBox="0 0 48 49" fill="none" xmlns="http://www.w3.org/2000/svg">
<g clip-path="url(#clip0_17_56)">
<path d="M24 48.6729C37.2548 48.6729 48 37.9277 48 24.6729C48 11.418 37.2548 0.672852 24 0.672852C10.7452 0.672852 0 11.418 0 24.6729C0 37.9277 10.7452 48.6729 24 48.6729Z" fill="#007AB9"/>
<path d="M38.3397 26.604V36.4987H32.6031V27.2671C32.6031 24.9492 31.7748 23.3663 29.6977 23.3663C28.1126 23.3663 27.171 24.432 26.7552 25.4639C26.6041 25.8326 26.5652 26.3448 26.5652 26.862V36.4983H20.8281C20.8281 36.4983 20.9051 20.8631 20.8281 19.2446H26.5656V21.6896C26.5541 21.7089 26.5378 21.7277 26.5276 21.7461H26.5656V21.6896C27.328 20.5165 28.6876 18.8395 31.7359 18.8395C35.5101 18.8395 38.3397 21.3054 38.3397 26.604ZM14.8266 10.9277C12.8642 10.9277 11.5803 12.2159 11.5803 13.9084C11.5803 15.5649 12.827 16.8903 14.7513 16.8903H14.7885C16.7895 16.8903 18.0336 15.5649 18.0336 13.9084C17.9955 12.2159 16.7895 10.9277 14.8266 10.9277ZM11.9213 36.4987H17.6562V19.2446H11.9213V36.4987Z" fill="#F1F2F2"/>
</g>
<defs>
<clipPath id="clip0_17_56">
<rect width="48" height="48" fill="white" transform="translate(0 0.67334)"/>
</clipPath>
</defs>
</svg>
