<svg width="98" height="117" viewBox="0 0 98 117" fill="none" xmlns="http://www.w3.org/2000/svg">
<path d="M97.9204 102.992C97.9204 110.185 76.115 116.045 49.2102 116.045C22.3054 116.045 0.5 110.223 0.5 102.992C0.5 95.7999 22.3054 89.9395 49.2102 89.9395C76.115 89.9395 97.8824 95.7999 97.9204 102.992Z" fill="black" fill-opacity="0.2"/>
<path d="M22.5337 88.95C17.8149 82.1762 16.9016 60.1044 27.8994 46.5188C33.3413 40.0115 34.7493 35.4829 35.1679 29.3561C35.4724 22.3921 30.2589 1.65217 49.8952 0.0919212C69.7978 -1.50638 68.6942 18.1299 68.5801 28.5189C68.504 37.2715 75.0114 42.2567 79.5018 49.1066C87.7597 61.6647 87.0747 83.2798 77.9416 95.0007C66.3729 109.652 56.4786 103.297 49.8952 103.829C37.5654 104.552 37.1468 111.098 22.5337 88.95Z" fill="black"/>
<path d="M70.559 50.4004C73.984 53.559 82.8507 67.6773 68.8085 76.5061C63.8614 79.5885 73.2229 91.3094 77.7133 85.6392C85.6668 75.4405 80.6055 59.1531 75.8106 53.3307C72.614 49.2207 67.6669 47.6224 70.559 50.4004Z" fill="url(#paint0_linear_4_474)"/>
<path d="M69.6076 48.4977C75.2397 53.0642 85.4765 69.0473 70.5209 79.4743C65.6118 82.709 74.8592 92.9457 80.0727 87.7322C98.1487 69.542 79.616 48.6499 73.2228 41.4575C67.5146 35.1785 62.4533 42.9036 69.6076 48.4977Z" fill="black" stroke="black" stroke-width="0.405004"/>
<path d="M61.502 10.0242C61.3117 15.2377 55.5654 19.7663 48.6775 20.1849C41.7896 20.6035 36.3858 16.6458 36.576 11.4323C36.7663 6.21875 42.5126 1.69022 49.4005 1.27162C56.2885 0.89107 61.6922 4.81072 61.502 10.0242Z" fill="url(#paint1_linear_4_474)"/>
<path d="M45.0241 22.4302C45.2144 25.817 43.6161 28.6712 41.4089 28.7853C39.2017 28.8995 37.2609 26.2737 37.0707 22.8868C36.8804 19.4999 38.4787 16.6458 40.6859 16.5317C42.8931 16.4175 44.8338 19.0433 45.0241 22.4302Z" fill="url(#paint2_linear_4_474)"/>
<path d="M49.02 22.6965C49.0961 26.6161 51.6458 29.7366 54.6901 29.6605C57.7345 29.5844 60.132 26.3497 60.0559 22.392C59.9798 18.4724 57.4301 15.3519 54.3857 15.428C51.3413 15.5041 48.9058 18.7768 49.02 22.6965Z" fill="url(#paint3_linear_4_474)"/>
<path d="M51.5315 23.5718C51.4935 25.7409 52.559 27.4914 53.967 27.4914C55.337 27.4914 56.5167 25.7409 56.5547 23.6098C56.5928 21.4407 55.5273 19.6902 54.1192 19.6902C52.7112 19.6902 51.5696 21.4407 51.5315 23.5718Z" fill="black"/>
<path d="M42.7409 23.6098C42.9312 25.3984 42.2462 26.9206 41.2567 27.0728C40.2673 27.187 39.3159 25.8551 39.1257 24.0665C38.9354 22.2779 39.6204 20.7557 40.6098 20.6035C41.5992 20.4893 42.5506 21.8213 42.7409 23.6098Z" fill="black"/>
<path d="M52.1023 22.354C51.9882 23.5718 52.559 24.5612 53.3581 24.6373C54.1573 24.7134 54.9184 23.7621 55.0325 22.5824C55.1467 21.3646 54.5759 20.3752 53.7767 20.2991C52.9776 20.223 52.2165 21.1743 52.1023 22.354Z" fill="url(#paint4_linear_4_474)"/>
<path d="M41.9037 22.6584C42.0179 23.6478 41.5993 24.5231 40.9904 24.5992C40.3815 24.6753 39.8107 23.9142 39.6965 22.8867C39.5824 21.8973 40.001 21.022 40.6098 20.9459C41.2187 20.8698 41.7895 21.669 41.9037 22.6584Z" fill="url(#paint5_linear_4_474)"/>
<path d="M29.9164 60.0283C32.6183 53.9014 38.3646 43.1319 38.4787 34.7979C38.4787 28.1764 58.3053 26.578 59.9036 33.1996C61.5019 39.8211 65.5357 49.7154 68.1235 54.5103C70.7112 59.2672 78.208 74.451 70.2165 87.6941C63.0241 99.415 41.2187 108.7 29.5739 86.0958C25.6162 78.2565 26.3392 68.5525 29.9164 60.0283Z" fill="url(#paint6_linear_4_474)"/>
<path d="M27.4809 55.4617C25.1595 59.838 20.3646 71.3306 32.0855 77.6096C44.6816 84.3073 44.6436 98.0451 29.4978 91.4997C15.6458 85.6012 21.7726 61.7027 25.6542 55.9945C28.1658 51.9987 31.9713 47.0897 27.4809 55.4617Z" fill="url(#paint7_linear_4_474)"/>
<path d="M29.4598 50.5146C25.7684 56.5273 16.9397 70.6837 28.7748 78.0663C44.6817 87.8464 40.1912 97.5884 25.6543 88.7978C5.18077 76.5441 23.1807 51.8085 31.3625 42.3709C40.724 31.7916 33.1511 44.3116 29.4598 50.5146Z" fill="black" stroke="black" stroke-width="0.518014"/>
<path d="M65.3074 62.3497C65.3074 69.0474 58.8762 77.7239 47.8403 77.6478C36.4619 77.7239 31.6289 69.0474 31.6289 62.3497C31.6289 55.652 39.1638 50.2102 48.4492 50.2102C57.7726 50.2483 65.3074 55.652 65.3074 62.3497Z" fill="url(#paint8_linear_4_474)"/>
<path d="M59.2947 41.3053C59.1806 48.2313 54.652 49.8677 48.9438 49.8677C43.2356 49.8677 39.0876 48.8402 38.5929 41.3053C38.5929 36.5865 43.2356 33.8466 48.9438 33.8466C54.652 33.8085 59.2947 36.5485 59.2947 41.3053Z" fill="url(#paint9_linear_4_474)"/>
<path d="M24.779 51.9607C28.5084 46.2905 36.3857 37.5759 26.2631 53.1784C18.0433 66.041 23.2187 74.2989 25.8826 76.5822C33.5697 83.432 33.2652 88.0367 27.2145 84.4215C14.2378 76.6963 16.9397 63.6816 24.779 51.9607Z" fill="url(#paint10_linear_4_474)"/>
<path d="M78.7788 54.2821C75.5442 47.6225 65.2694 30.7261 79.2735 50.3624C92.0219 68.134 83.079 80.5018 81.4807 81.7196C79.8824 82.9374 74.5167 85.4109 76.0769 81.1107C77.6752 76.8105 85.5906 68.6668 78.7788 54.2821Z" fill="url(#paint11_linear_4_474)"/>
<path d="M21.9629 106.798C13.4386 102.269 1.07076 107.673 5.56124 95.4193C6.47455 92.6413 4.22932 88.4552 5.6754 85.7533C7.38787 82.4426 11.0792 83.1656 13.2864 80.9584C15.4555 78.6751 16.8255 74.7174 20.8973 75.3263C24.9312 75.9352 27.633 80.8823 30.4491 86.9711C32.5421 91.3093 39.9248 97.4362 39.4301 102.307C38.8212 109.766 30.3349 111.174 21.9629 106.798Z" fill="url(#paint12_linear_4_474)" stroke="#E68C3F" stroke-width="2.59007"/>
<path d="M84.0304 78.0282C82.7365 80.4637 77.3327 84.3834 73.7175 83.3559C70.0643 82.3665 68.3898 76.8105 69.1129 72.5864C69.7979 67.8676 73.7175 67.6012 78.6647 69.9606C83.9923 72.5864 85.5906 74.7936 84.0304 78.0282Z" fill="url(#paint13_linear_4_474)"/>
<path d="M81.0621 104.705C87.3031 97.1317 101.193 98.692 91.8316 88.303C89.8527 86.0578 90.4616 81.2629 88.0261 79.2079C85.172 76.6963 82.0134 78.7512 79.1213 77.4574C76.2291 76.0493 73.1847 73.3475 69.6456 75.2502C66.1065 77.191 65.726 82.2142 65.3835 88.8358C65.079 93.5926 60.7408 101.546 63.0621 105.922C66.411 112.696 75.1255 111.783 81.0621 104.705Z" fill="url(#paint14_linear_4_474)" stroke="#E68C3F" stroke-width="2.59036"/>
<path d="M78.3602 94.5821C88.0261 80.3116 80.8337 80.4257 78.3982 79.3222C75.9627 78.1805 73.413 75.9353 70.5589 77.4955C67.7048 79.0938 67.5526 83.2037 67.4765 88.6075C67.3623 92.4891 64.1277 98.9965 66.0684 102.612C68.4278 106.836 74.1361 100.709 78.3602 94.5821Z" fill="url(#paint15_linear_4_474)"/>
<path d="M19.984 96.6371C5.5232 87.2756 12.297 84.079 14.4661 82.5949C17.0919 80.6922 17.1299 77.0389 20.3646 77.3814C23.5993 77.7239 25.502 81.7196 27.6711 86.6668C29.2694 90.2059 34.8254 94.9247 34.4068 98.9965C33.8741 103.791 26.225 100.633 19.984 96.6371Z" fill="url(#paint16_linear_4_474)"/>
<path d="M83.1932 77.9141C82.0515 79.8929 77.4088 83.0134 74.3264 82.1762C71.1678 81.3771 69.7218 76.9246 70.3687 73.5758C70.9395 69.7703 74.3264 69.5801 78.5885 71.4828C83.1171 73.5378 84.5251 75.2883 83.1932 77.9141Z" fill="black"/>
<path d="M80.0727 76.8105C79.3496 78.1805 76.3053 80.3496 74.1742 79.7788C72.0431 79.208 70.9776 76.1255 71.3201 73.8042C71.6245 71.1784 73.9078 71.0262 76.8 72.32C79.9205 73.7661 80.9099 74.9839 80.0727 76.8105Z" fill="url(#paint17_linear_4_474)"/>
<path d="M40.724 27.1489C42.2462 25.7408 45.9375 21.4406 52.9396 25.9311C54.2334 26.7683 55.299 26.8444 57.7725 27.91C62.7577 29.9649 60.3983 34.9121 55.0706 36.5865C52.7874 37.3095 50.7324 40.0875 46.6225 39.8211C43.0834 39.6309 42.1701 37.3095 40.0009 36.0537C36.1574 33.8846 35.5866 30.9544 37.6796 29.3941C39.7726 27.8339 40.5718 27.263 40.724 27.1489Z" fill="url(#paint18_linear_4_474)" stroke="#E68C3F" stroke-width="1.55404"/>
<path d="M57.8486 31.1447C55.7556 31.2588 51.2271 35.7873 46.4702 35.7873C41.7134 35.7873 38.8593 31.373 38.1362 31.373" stroke="#E68C3F" stroke-width="1.03603"/>
<path d="M43.0834 26.7684C43.8445 26.0834 46.242 24.2187 49.4005 26.1214C50.0855 26.502 50.7705 26.9206 51.7599 27.4914C53.7768 28.6711 52.7874 30.3836 50.3519 31.4491C49.2483 31.9058 47.4217 32.8952 46.0517 32.8191C44.5295 32.6669 43.502 31.6774 42.5126 31.0305C40.6479 29.8127 40.7621 28.7853 41.6373 27.9861C42.2843 27.3772 43.0073 26.8064 43.0834 26.7684Z" fill="url(#paint19_linear_4_474)"/>
<defs>
<linearGradient id="paint0_linear_4_474" x1="1865.43" y1="13024.2" x2="2506.07" y2="4747.23" gradientUnits="userSpaceOnUse">
<stop stop-color="#FFEED7"/>
<stop offset="1" stop-color="#BDBFC2"/>
</linearGradient>
<linearGradient id="paint1_linear_4_474" x1="3509.63" y1="135.777" x2="3204.72" y2="5081.5" gradientUnits="userSpaceOnUse">
<stop stop-color="white" stop-opacity="0.8"/>
<stop offset="1" stop-color="white" stop-opacity="0"/>
</linearGradient>
<linearGradient id="paint2_linear_4_474" x1="1097.04" y1="3208.4" x2="908.926" y2="376.285" gradientUnits="userSpaceOnUse">
<stop stop-color="#FFEED7"/>
<stop offset="1" stop-color="#BDBFC2"/>
</linearGradient>
<linearGradient id="paint3_linear_4_474" x1="1460.21" y1="3605.49" x2="1460.15" y2="595.402" gradientUnits="userSpaceOnUse">
<stop stop-color="#FFEED7"/>
<stop offset="1" stop-color="#BDBFC2"/>
</linearGradient>
<linearGradient id="paint4_linear_4_474" x1="460.437" y1="60.069" x2="331.417" y2="1216.64" gradientUnits="userSpaceOnUse">
<stop stop-color="white" stop-opacity="0.65"/>
<stop offset="1" stop-color="white" stop-opacity="0"/>
</linearGradient>
<linearGradient id="paint5_linear_4_474" x1="301.682" y1="80.1071" x2="440.886" y2="1018.9" gradientUnits="userSpaceOnUse">
<stop stop-color="white" stop-opacity="0.65"/>
<stop offset="1" stop-color="white" stop-opacity="0"/>
</linearGradient>
<linearGradient id="paint6_linear_4_474" x1="6027.67" y1="18837.2" x2="6027.67" y2="8534.79" gradientUnits="userSpaceOnUse">
<stop stop-color="#FFEED7"/>
<stop offset="1" stop-color="#BDBFC2"/>
</linearGradient>
<linearGradient id="paint7_linear_4_474" x1="2804.06" y1="12538.4" x2="487.725" y2="3439" gradientUnits="userSpaceOnUse">
<stop stop-color="#FFEED7"/>
<stop offset="1" stop-color="#BDBFC2"/>
</linearGradient>
<linearGradient id="paint8_linear_4_474" x1="4328.8" y1="1120.99" x2="4351.69" y2="7713.29" gradientUnits="userSpaceOnUse">
<stop stop-color="white" stop-opacity="0.8"/>
<stop offset="1" stop-color="white" stop-opacity="0"/>
</linearGradient>
<linearGradient id="paint9_linear_4_474" x1="2684.57" y1="1798.05" x2="2709.96" y2="4419.22" gradientUnits="userSpaceOnUse">
<stop stop-color="white" stop-opacity="0.65"/>
<stop offset="1" stop-color="white" stop-opacity="0"/>
</linearGradient>
<linearGradient id="paint10_linear_4_474" x1="1744.06" y1="324.636" x2="1744.06" y2="9944.01" gradientUnits="userSpaceOnUse">
<stop stop-color="white" stop-opacity="0.65"/>
<stop offset="1" stop-color="white" stop-opacity="0"/>
</linearGradient>
<linearGradient id="paint11_linear_4_474" x1="1846.74" y1="325.171" x2="1843.63" y2="9016.72" gradientUnits="userSpaceOnUse">
<stop stop-color="white" stop-opacity="0.65"/>
<stop offset="1" stop-color="white" stop-opacity="0"/>
</linearGradient>
<linearGradient id="paint12_linear_4_474" x1="4774.14" y1="4982.55" x2="3537.27" y2="9930.19" gradientUnits="userSpaceOnUse">
<stop stop-color="#FFA63F"/>
<stop offset="1" stop-color="#FFFF00"/>
</linearGradient>
<linearGradient id="paint13_linear_4_474" x1="2167.52" y1="6404.1" x2="1990.68" y2="-2794.66" gradientUnits="userSpaceOnUse">
<stop stop-color="#FFEED7"/>
<stop offset="1" stop-color="#BDBFC2"/>
</linearGradient>
<linearGradient id="paint14_linear_4_474" x1="2614.49" y1="3682.39" x2="6023.19" y2="9247.28" gradientUnits="userSpaceOnUse">
<stop stop-color="#FFA63F"/>
<stop offset="1" stop-color="#FFFF00"/>
</linearGradient>
<linearGradient id="paint15_linear_4_474" x1="2781.95" y1="-1296.68" x2="1623.58" y2="5237.9" gradientUnits="userSpaceOnUse">
<stop stop-color="white" stop-opacity="0.65"/>
<stop offset="1" stop-color="white" stop-opacity="0"/>
</linearGradient>
<linearGradient id="paint16_linear_4_474" x1="2878.54" y1="188.406" x2="3106.24" y2="7479.55" gradientUnits="userSpaceOnUse">
<stop stop-color="white" stop-opacity="0.65"/>
<stop offset="1" stop-color="white" stop-opacity="0"/>
</linearGradient>
<linearGradient id="paint17_linear_4_474" x1="1085.78" y1="183.137" x2="1352.3" y2="2362.89" gradientUnits="userSpaceOnUse">
<stop stop-color="white" stop-opacity="0.65"/>
<stop offset="1" stop-color="white" stop-opacity="0"/>
</linearGradient>
<linearGradient id="paint18_linear_4_474" x1="3096.32" y1="849.953" x2="3118.56" y2="4686.27" gradientUnits="userSpaceOnUse">
<stop stop-color="#FFA63F"/>
<stop offset="1" stop-color="#FFFF00"/>
</linearGradient>
<linearGradient id="paint19_linear_4_474" x1="1558.58" y1="89.525" x2="1552.56" y2="2118.06" gradientUnits="userSpaceOnUse">
<stop stop-color="white" stop-opacity="0.65"/>
<stop offset="1" stop-color="white" stop-opacity="0"/>
</linearGradient>
</defs>
</svg>
