<svg width="48" height="49" viewBox="0 0 48 49" fill="none" xmlns="http://www.w3.org/2000/svg">
<g clip-path="url(#clip0_17_86)">
<path d="M24 48.6734C37.2548 48.6734 48 37.9283 48 24.6734C48 11.4186 37.2548 0.67334 24 0.67334C10.7452 0.67334 0 11.4186 0 24.6734C0 37.9283 10.7452 48.6734 24 48.6734Z" fill="#1D67B1"/>
<path d="M24.0026 17.46L11.992 17.488C11.9911 17.488 11.9902 17.488 11.9893 17.488C11.9462 17.4806 11.9024 17.4774 11.8586 17.4786C11.6821 17.4814 11.5138 17.5542 11.3908 17.6809C11.2678 17.8077 11.2001 17.978 11.2026 18.1546V33.3413C11.2026 33.5181 11.2729 33.6877 11.3979 33.8127C11.5229 33.9377 11.6925 34.008 11.8693 34.008H36.124C36.3008 34.008 36.4704 33.9377 36.5954 33.8127C36.7204 33.6877 36.7906 33.5181 36.7906 33.3413V18.24C36.8048 18.1454 36.7984 18.0489 36.772 17.957C36.7456 17.8651 36.6997 17.78 36.6375 17.7074C36.5753 17.6348 36.4982 17.5765 36.4114 17.5363C36.3246 17.4961 36.2302 17.4751 36.1346 17.4746L24.0026 17.46ZM24.0026 18.7933H24.0053L33.8173 18.8066L24.0026 24.9466L14.1893 18.82L24.0026 18.7933ZM35.4573 19.3506V32.6733H12.536V19.356L23.6506 26.2986C23.7566 26.3648 23.879 26.4 24.004 26.4C24.1289 26.4 24.2514 26.3648 24.3573 26.2986L35.4573 19.3506Z" fill="white"/>
</g>
<defs>
<clipPath id="clip0_17_86">
<rect width="48" height="48.0001" fill="white" transform="translate(0 0.67334)"/>
</clipPath>
</defs>
</svg>
