<svg width="140" height="72" viewBox="0 0 140 72" fill="none" xmlns="http://www.w3.org/2000/svg">
<path d="M0.501118 65.5815H5.09393V47.4439L12.2045 63.256C13.043 65.1701 14.1912 65.8465 16.444 65.8465C18.6968 65.8465 19.8014 65.1701 20.6399 63.256L27.7505 47.4439V65.5815H32.3433V47.4741C32.3433 45.7077 31.6368 44.8524 30.1789 44.4119C26.6895 43.3229 24.3484 44.2654 23.2885 46.6211L16.311 62.2263L9.55481 46.62C8.53854 44.2654 6.15381 43.3229 2.66448 44.4108C1.20659 44.8524 0.5 45.7065 0.5 47.473L0.501118 65.5815ZM36.1636 50.817H40.7553V60.8098C40.7128 61.3521 40.9297 62.6266 43.4452 62.6668C44.7287 62.687 53.3531 62.6668 53.4336 62.6668V50.7678H58.0365C58.0577 50.7678 58.032 66.9947 58.032 67.0618C58.0566 71.0643 53.0669 71.933 50.766 72H36.2631V68.9098C36.2877 68.9098 50.756 68.9132 50.7917 68.9087C53.7489 68.5968 53.3989 67.1277 53.3978 66.6336V65.4283H43.6364C39.095 65.387 36.2016 63.4047 36.1647 61.124C36.1625 60.9149 36.2642 50.9176 36.1636 50.817Z" fill="#00618A"/>
<path d="M61.5771 65.5815H74.7832C76.3294 65.5815 77.832 65.2584 79.0238 64.6994C81.0105 63.7871 81.9821 62.5506 81.9821 60.9294V57.5732C81.9821 56.2483 80.8786 55.0107 78.7141 54.1878C77.5659 53.7451 76.1516 53.5114 74.782 53.5114H69.2166C67.3618 53.5114 66.4785 52.9524 66.2583 51.7159C66.2147 51.5683 66.2147 51.4509 66.2147 51.3033V49.2126C66.2147 49.0953 66.2147 48.9767 66.2583 48.8303C66.4785 47.8878 66.9649 47.6228 68.5994 47.4752L69.041 47.4462H82.1587V44.385H69.2624C67.4076 44.385 66.436 44.5024 65.5528 44.7674C62.8148 45.6216 61.6207 46.9755 61.6207 49.3311V52.0099C61.6207 54.0715 63.963 55.838 67.8928 56.2506C68.3356 56.2785 68.7761 56.3098 69.2177 56.3098H73.9882C74.1649 56.3098 74.3415 56.3098 74.4746 56.3378C75.9325 56.4552 76.5496 56.7212 76.9924 57.2501C77.2573 57.515 77.3445 57.7811 77.3445 58.074V60.7539C77.3445 61.077 77.1243 61.4896 76.6827 61.8429C76.2858 62.1962 75.6228 62.4321 74.7396 62.4913L74.2532 62.5204H61.5771V65.5815ZM110.637 60.2531C110.637 63.4025 112.978 65.169 117.703 65.5234C118.144 65.5524 118.586 65.5815 119.028 65.5815H130.997V62.5204H118.94C116.246 62.5204 115.231 61.8429 115.231 60.2229V44.3828H110.638L110.637 60.2531ZM84.9135 60.4118V49.4944C84.9135 46.7217 86.8611 45.0391 90.7115 44.508C91.1096 44.4488 91.5534 44.4197 91.9503 44.4197H100.67C101.112 44.4197 101.51 44.4488 101.952 44.508C105.803 45.0391 107.751 46.7206 107.751 49.4944V60.4118C107.751 62.6635 106.924 63.8665 105.018 64.6513L109.543 68.7354H104.209L100.549 65.4306L96.864 65.6642H91.9503C91.1095 65.6642 90.2252 65.5469 89.2514 65.2808C86.33 64.4847 84.9135 62.9497 84.9135 60.4118ZM89.8708 60.1468C89.8708 60.2944 89.9144 60.4431 89.9591 60.6198C90.2241 61.8887 91.4204 62.5964 93.2338 62.5964H97.4062L93.5737 59.1362H98.9077L102.249 62.1548C102.867 61.825 103.271 61.3241 103.413 60.679C103.457 60.5314 103.457 60.3839 103.457 60.2363V49.7627C103.457 49.6453 103.457 49.4966 103.413 49.349C103.147 48.1684 101.952 47.4909 100.182 47.4909H93.2327C91.1979 47.4909 89.8697 48.3764 89.8697 49.7627L89.8708 60.1468Z" fill="#E48E00"/>
<path d="M135.038 39.3014C132.215 39.2242 130.058 39.487 128.213 40.264C127.689 40.4854 126.854 40.4909 126.769 41.1472C127.056 41.4502 127.101 41.9008 127.33 42.2719C127.77 42.9841 128.514 43.9389 129.177 44.4387C129.9 44.9854 130.647 45.5712 131.425 46.0453C132.806 46.8882 134.349 47.369 135.68 48.212C136.464 48.7106 137.242 49.3367 138.008 49.8991C138.387 50.1752 138.64 50.6079 139.133 50.7812V50.7018C138.875 50.3731 138.807 49.9214 138.57 49.5771L137.526 48.5328C136.505 47.1778 135.211 45.9894 133.832 45.001C132.734 44.2128 130.277 43.1474 129.819 41.8695L129.738 41.7901C130.516 41.7018 131.429 41.42 132.146 41.2277C133.354 40.9035 134.433 40.9873 135.679 40.6654L137.365 40.1824V39.8626C136.736 39.2164 136.285 38.36 135.599 37.7753C133.802 36.2447 131.839 34.7153 129.819 33.4385C128.698 32.7319 127.313 32.2724 126.125 31.6732C125.727 31.4708 125.025 31.3668 124.76 31.0303C124.135 30.2354 123.796 29.2281 123.314 28.3012C122.308 26.3615 121.317 24.2417 120.424 22.1991C119.816 20.8072 119.418 19.4342 118.659 18.1854C115.013 12.1917 111.088 8.57382 105.01 5.01853C103.716 4.26163 102.159 3.96424 100.514 3.57405L97.8646 3.41306C97.3268 3.18834 96.7656 2.52871 96.2591 2.20895C94.2445 0.936652 89.0792 -1.83044 87.5878 1.8087C86.6464 4.10511 88.9965 6.34561 89.8361 7.50947C90.4253 8.32562 91.1811 9.24016 91.6026 10.158C91.8799 10.7618 91.9268 11.3666 92.165 12.005C92.7474 13.5769 93.2561 15.2886 94.0108 16.7409C94.392 17.4766 94.8135 18.2514 95.2954 18.9088C95.5906 19.3112 96.0981 19.4901 96.1775 20.1129C95.6822 20.806 95.6532 21.8838 95.3748 22.7614C94.1204 26.7181 94.5933 31.6363 96.419 34.5643C96.9791 35.4643 98.2984 37.3918 100.112 36.6517C101.698 36.0055 101.345 34.0031 101.799 32.2355C101.902 31.8364 101.838 31.5412 102.039 31.2729V31.3534L103.485 34.2435C104.555 35.9663 106.452 37.7652 108.061 38.9805C108.895 39.61 109.552 40.7 110.63 41.0678V40.9862H110.551C110.341 40.6609 110.015 40.5267 109.747 40.264C109.119 39.648 108.42 38.8832 107.901 38.1767C106.438 36.1911 105.145 34.0165 103.967 31.7537C103.404 30.6736 102.916 29.4818 102.442 28.3817C102.258 27.958 102.261 27.3162 101.881 27.0982C101.36 27.9032 100.596 28.555 100.193 29.5064C99.5517 31.0269 99.469 32.8817 99.2308 34.8047L99.0698 34.8841C97.9507 34.6147 97.5583 33.4631 97.1424 32.4759C96.0914 29.9794 95.8958 25.9579 96.8215 23.0834C97.0608 22.3388 98.1419 19.9966 97.7036 19.309C97.4945 18.6237 96.8047 18.2279 96.4201 17.7024C95.9427 17.0551 95.4653 16.2032 95.1355 15.4541C94.2747 13.5076 93.8733 11.3219 92.9688 9.35308C92.535 8.41171 91.8038 7.46027 91.2023 6.624C90.5371 5.69604 89.7914 5.01406 89.2749 3.89381C89.0915 3.49579 88.8422 2.8574 89.1139 2.44821C89.2 2.17206 89.3241 2.0569 89.5969 1.96634C90.062 1.60746 91.3589 2.08597 91.8441 2.28722C93.132 2.82275 94.2065 3.33144 95.2976 4.05368C95.8209 4.40138 96.3497 5.07219 96.9836 5.25778H97.7058C98.8362 5.51716 100.103 5.33716 101.158 5.65803C103.025 6.22599 104.698 7.1081 106.216 8.06736C110.844 10.9899 114.626 15.1489 117.215 20.1106C117.631 20.91 117.812 21.6714 118.178 22.5188C118.918 24.2272 119.85 25.9858 120.586 27.6572C121.321 29.3242 122.037 31.0068 123.076 32.3943C123.621 33.1232 125.73 33.5145 126.688 33.9192C127.36 34.2032 128.46 34.4995 129.096 34.8819C130.312 35.6153 131.49 36.4884 132.629 37.2912C133.198 37.6959 134.95 38.5758 135.038 39.3014ZM99.1503 8.71357C98.5622 8.70239 98.1452 8.77842 97.7047 8.87457V8.95394H97.7852C98.0658 9.53196 98.5611 9.90314 98.9088 10.3995L99.7127 12.0855L99.7921 12.0061C100.29 11.6562 100.517 11.0961 100.514 10.2397C100.314 10.0295 100.285 9.76674 100.113 9.51743C99.8849 9.18202 99.4399 8.99419 99.1503 8.71357Z" fill="#00618A"/>
</svg>
