<?xml version="1.0" encoding="UTF-8"?>
<svg xmlns="http://www.w3.org/2000/svg" xmlns:xlink="http://www.w3.org/1999/xlink" width="150px" height="150px" viewBox="0 0 150 150" version="1.1">
<defs>
<linearGradient id="linear0" gradientUnits="userSpaceOnUse" x1="39.558201" y1="29.3505" x2="69.444397" y2="128.876007" >
<stop offset="0" style="stop-color:rgb(54.117647%,62.352941%,87.843137%);stop-opacity:1;"/>
<stop offset="0.588" style="stop-color:rgb(44.313725%,50.980392%,72.156863%);stop-opacity:1;"/>
<stop offset="1" style="stop-color:rgb(34.117647%,39.215686%,56.470588%);stop-opacity:1;"/>
</linearGradient>
</defs>
<g id="surface1">
<path style=" stroke:none;fill-rule:nonzero;fill:rgb(80.000001%,80.000001%,80.000001%);fill-opacity:1;" d="M 67.902344 95.535156 C 68.273438 100.429688 68.199219 105.34375 67.6875 110.222656 C 67.664062 110.90625 67.460938 111.574219 67.101562 112.15625 C 66.738281 112.738281 66.230469 113.21875 65.628906 113.546875 C 61.734375 116.4375 48.679688 117.132812 47.054688 110.984375 C 46.453125 110.964844 46.929688 108.976562 46.359375 109.050781 C 45.21875 108.957031 44.113281 108.597656 43.136719 107.996094 C 42.160156 107.398438 41.335938 106.578125 40.734375 105.605469 C 40.757812 98.882812 41.5 74.632812 29.484375 81.164062 C 26.871094 82.617188 24.914062 85.011719 24.007812 87.863281 C 23.199219 90.347656 22.820312 92.953125 22.882812 95.5625 C 22.789062 98.910156 23.625 102.570312 23.746094 106.589844 C 23.792969 108.382812 24.078125 108.839844 22.742188 110.367188 C 20.59375 112.828125 16.835938 110.753906 14.808594 108.046875 C 13.949219 106.683594 13.480469 105.113281 13.445312 103.503906 C 11.832031 85.945312 13.421875 68.242188 18.132812 51.25 C 19.851562 45.484375 20.453125 44.648438 25.925781 43.355469 C 32.15625 41.988281 38.5625 41.609375 44.910156 42.230469 C 49.835938 40.625 61.527344 31.945312 66.570312 38.835938 C 74.226562 37.136719 82.140625 36.988281 89.851562 38.398438 C 97.5625 39.804688 104.914062 42.746094 111.472656 47.039062 C 118.117188 47.542969 124.78125 47.664062 131.4375 47.398438 C 132.375 46.800781 133.472656 46.15625 134.429688 45.605469 C 135.132812 45.132812 135.917969 44.796875 136.75 44.625 C 137.828125 44.457031 139.234375 44.410156 139.5625 45.75 C 139.847656 47.125 139.941406 48.535156 139.847656 49.9375 C 139.8125 50.78125 139.496094 51.589844 138.953125 52.234375 C 138.40625 52.878906 137.660156 53.324219 136.832031 53.5 C 134.960938 53.191406 133.148438 52.605469 131.453125 51.753906 C 125.359375 51.921875 121.609375 51.585938 115.515625 51.753906 C 116.492188 52.804688 116.453125 53.5 117.164062 54.886719 C 118.914062 59.496094 119.5 64.464844 118.867188 69.355469 C 118.234375 74.246094 116.398438 78.902344 113.53125 82.914062 C 113.101562 89.898438 113.625 96.953125 113.675781 103.960938 C 113.699219 106.371094 113.867188 108.671875 111.59375 110.273438 C 109.589844 111.476562 107.335938 112.203125 105.007812 112.398438 C 102.675781 112.59375 100.332031 112.253906 98.15625 111.398438 C 96.96875 110.71875 95.910156 109.835938 95.023438 108.792969 C 94.246094 108.871094 93.460938 108.890625 92.679688 108.839844 C 91.351562 108.472656 90.203125 107.628906 89.453125 106.472656 C 89.019531 105.683594 88.652344 104.859375 88.351562 104.011719 C 88.351562 100.730469 88.226562 99.445312 88.226562 96.167969 C 81.46875 97.375 74.535156 97.179688 67.855469 95.597656 Z M 67.902344 95.535156 "/>
<path style=" stroke:none;fill-rule:nonzero;fill:rgb(80.000001%,80.000001%,80.000001%);fill-opacity:1;" d="M 56.695312 116.433594 C 54.757812 116.457031 52.832031 116.164062 50.992188 115.570312 C 49.96875 115.296875 49.023438 114.789062 48.234375 114.085938 C 47.441406 113.382812 46.824219 112.503906 46.433594 111.519531 C 46.09375 111.09375 45.925781 110.554688 45.964844 110.011719 L 45.964844 109.800781 C 44.773438 109.621094 43.636719 109.191406 42.625 108.535156 C 41.613281 107.878906 40.753906 107.015625 40.105469 105.996094 L 39.992188 105.816406 L 39.992188 104.597656 C 40.035156 99.054688 40.144531 84.332031 35.148438 81.335938 C 34.304688 80.929688 33.371094 80.757812 32.4375 80.839844 C 31.507812 80.921875 30.617188 81.257812 29.859375 81.804688 C 27.398438 83.179688 25.554688 85.441406 24.703125 88.128906 C 23.933594 90.535156 23.570312 93.050781 23.632812 95.574219 C 23.632812 97.457031 23.765625 99.335938 24.03125 101.199219 C 24.234375 102.914062 24.441406 104.695312 24.5 106.566406 C 24.496094 106.839844 24.507812 107.085938 24.535156 107.296875 C 24.640625 107.945312 24.585938 108.609375 24.371094 109.230469 C 24.160156 109.851562 23.796875 110.410156 23.316406 110.859375 C 22.933594 111.308594 22.453125 111.664062 21.914062 111.898438 C 21.375 112.132812 20.785156 112.238281 20.199219 112.210938 C 18.996094 112.042969 17.84375 111.628906 16.8125 110.988281 C 15.785156 110.347656 14.898438 109.5 14.21875 108.496094 C 13.253906 107.027344 12.730469 105.316406 12.707031 103.5625 C 11.074219 85.910156 12.675781 68.109375 17.433594 51.03125 C 19.191406 45.148438 19.964844 44 25.773438 42.628906 C 32.027344 41.25 38.464844 40.859375 44.839844 41.46875 C 46.246094 40.929688 47.613281 40.300781 48.941406 39.59375 C 54.71875 36.707031 62.582031 32.785156 66.898438 38.03125 C 74.550781 36.378906 82.453125 36.257812 90.152344 37.683594 C 97.851562 39.105469 105.1875 42.039062 111.746094 46.316406 C 118.234375 46.804688 124.746094 46.917969 131.25 46.65625 C 132.1875 46.078125 133.179688 45.476562 134.089844 44.953125 L 134.351562 44.804688 C 135.058594 44.34375 135.84375 44.027344 136.667969 43.867188 C 138.75 43.542969 139.949219 44.113281 140.3125 45.558594 C 140.609375 47.003906 140.714844 48.484375 140.617188 49.960938 C 140.570312 50.984375 140.175781 51.960938 139.503906 52.734375 C 138.828125 53.507812 137.914062 54.03125 136.90625 54.21875 L 136.785156 54.21875 L 136.667969 54.1875 C 136.265625 54.082031 135.859375 53.988281 135.449219 53.898438 C 133.988281 53.648438 132.570312 53.175781 131.25 52.5 C 128.28125 52.574219 125.835938 52.53125 123.472656 52.5 C 121.445312 52.46875 119.359375 52.429688 116.9375 52.46875 C 117.089844 52.761719 117.195312 53.046875 117.3125 53.339844 C 117.46875 53.746094 117.644531 54.148438 117.839844 54.539062 C 119.660156 59.25 120.285156 64.335938 119.664062 69.34375 C 119.039062 74.355469 117.1875 79.132812 114.273438 83.253906 C 114.007812 87.78125 114.144531 92.429688 114.273438 96.921875 C 114.34375 99.226562 114.410156 101.609375 114.425781 103.953125 L 114.425781 104.359375 C 114.652344 105.5625 114.546875 106.804688 114.121094 107.953125 C 113.699219 109.101562 112.972656 110.117188 112.023438 110.886719 C 109.914062 112.167969 107.542969 112.945312 105.085938 113.152344 C 102.628906 113.363281 100.15625 113 97.867188 112.09375 C 96.855469 111.59375 95.957031 110.894531 95.222656 110.042969 C 95.058594 109.875 94.894531 109.710938 94.726562 109.546875 C 94.496094 109.546875 94.257812 109.574219 94.046875 109.597656 C 93.53125 109.675781 93.007812 109.664062 92.5 109.570312 C 90.992188 109.152344 89.6875 108.199219 88.828125 106.894531 C 88.5 106.359375 88.230469 105.792969 88.027344 105.203125 C 87.917969 104.902344 87.800781 104.609375 87.671875 104.320312 L 87.605469 104.175781 L 87.605469 104.015625 C 87.605469 102.390625 87.578125 101.230469 87.542969 100.117188 C 87.519531 99.179688 87.496094 98.242188 87.488281 97.027344 C 81.265625 98.050781 74.90625 97.90625 68.738281 96.59375 C 69.019531 101.175781 68.917969 105.769531 68.433594 110.335938 C 68.398438 111.117188 68.167969 111.878906 67.757812 112.542969 C 67.347656 113.210938 66.773438 113.761719 66.089844 114.144531 C 63.234375 115.769531 59.980469 116.5625 56.695312 116.433594 Z M 47.464844 110.253906 L 47.632812 110.253906 L 47.773438 110.789062 C 48.054688 111.617188 48.542969 112.363281 49.191406 112.953125 C 49.839844 113.539062 50.628906 113.953125 51.484375 114.15625 C 56.03125 115.546875 60.945312 115.113281 65.179688 112.941406 C 65.699219 112.675781 66.136719 112.273438 66.445312 111.777344 C 66.757812 111.28125 66.925781 110.710938 66.9375 110.128906 C 67.429688 105.496094 67.515625 100.828125 67.195312 96.179688 L 66.796875 96.066406 L 68.4375 92.8125 L 68.628906 94.984375 C 75.054688 96.402344 81.695312 96.539062 88.171875 95.394531 L 89.019531 95.28125 L 89.019531 96.136719 C 89.019531 97.761719 89.046875 98.921875 89.082031 100.035156 C 89.113281 101.152344 89.136719 102.253906 89.140625 103.820312 C 89.257812 104.097656 89.367188 104.363281 89.464844 104.621094 C 89.628906 105.113281 89.847656 105.582031 90.117188 106.027344 C 90.773438 107.03125 91.773438 107.765625 92.929688 108.089844 C 93.265625 108.140625 93.605469 108.140625 93.941406 108.089844 C 94.320312 108.046875 94.703125 108.023438 95.085938 108.027344 L 95.367188 108.027344 L 95.574219 108.21875 C 95.828125 108.457031 96.078125 108.707031 96.332031 108.96875 C 96.929688 109.679688 97.664062 110.261719 98.488281 110.6875 C 100.546875 111.488281 102.765625 111.8125 104.96875 111.628906 C 107.171875 111.449219 109.300781 110.765625 111.203125 109.636719 C 113.019531 108.351562 112.996094 106.589844 112.96875 104.351562 L 112.96875 103.945312 C 112.96875 101.601562 112.882812 99.257812 112.8125 96.953125 C 112.679688 92.324219 112.535156 87.539062 112.8125 82.847656 L 112.8125 82.539062 L 113.046875 82.332031 C 115.8125 78.445312 117.574219 73.9375 118.179688 69.207031 C 118.785156 64.476562 118.210938 59.667969 116.511719 55.214844 C 116.292969 54.777344 116.09375 54.328125 115.921875 53.867188 C 115.734375 53.265625 115.414062 52.710938 114.984375 52.246094 L 113.855469 51.03125 L 115.507812 50.984375 C 118.574219 50.902344 121.078125 50.945312 123.507812 50.984375 C 125.933594 51.027344 128.40625 51.070312 131.433594 50.984375 L 131.652344 50.984375 L 131.839844 51.101562 C 133.0625 51.765625 134.382812 52.222656 135.753906 52.457031 L 136.890625 52.726562 C 137.507812 52.535156 138.050781 52.15625 138.445312 51.644531 C 138.839844 51.136719 139.066406 50.515625 139.097656 49.871094 C 139.195312 48.539062 139.101562 47.203125 138.824219 45.898438 C 138.757812 45.613281 138.632812 45.074219 136.875 45.351562 C 136.234375 45.480469 135.621094 45.734375 135.074219 46.09375 L 134.8125 46.242188 C 133.875 46.777344 132.800781 47.429688 131.855469 48.019531 L 131.679688 48.125 L 131.480469 48.125 C 124.792969 48.402344 118.097656 48.285156 111.425781 47.765625 L 111.230469 47.765625 L 111.066406 47.652344 C 104.589844 43.40625 97.328125 40.503906 89.710938 39.117188 C 82.09375 37.726562 74.273438 37.878906 66.71875 39.566406 L 66.25 39.652344 L 65.972656 39.277344 C 62.46875 34.496094 55.03125 38.210938 49.597656 40.925781 C 48.160156 41.695312 46.671875 42.367188 45.144531 42.941406 L 44.996094 42.988281 L 44.839844 42.988281 C 38.570312 42.371094 32.242188 42.746094 26.089844 44.09375 C 20.835938 45.332031 20.464844 45.96875 18.839844 51.472656 C 14.132812 68.371094 12.542969 85.988281 14.152344 103.457031 C 14.164062 104.925781 14.585938 106.359375 15.359375 107.601562 C 15.914062 108.425781 16.625 109.125 17.460938 109.664062 C 18.292969 110.199219 19.226562 110.5625 20.203125 110.722656 C 20.570312 110.746094 20.933594 110.679688 21.269531 110.535156 C 21.605469 110.386719 21.90625 110.164062 22.140625 109.882812 C 22.492188 109.585938 22.757812 109.195312 22.910156 108.753906 C 23.058594 108.316406 23.085938 107.84375 22.992188 107.390625 C 22.992188 107.160156 22.964844 106.921875 22.960938 106.621094 C 22.886719 104.867188 22.726562 103.121094 22.492188 101.382812 C 22.21875 99.449219 22.085938 97.503906 22.082031 95.554688 C 22.011719 92.851562 22.410156 90.15625 23.257812 87.585938 C 24.234375 84.578125 26.3125 82.050781 29.070312 80.511719 C 30.050781 79.824219 31.199219 79.417969 32.390625 79.335938 C 33.582031 79.253906 34.777344 79.496094 35.839844 80.042969 C 41.574219 83.480469 41.464844 98.277344 41.417969 104.597656 L 41.417969 105.378906 C 41.957031 106.191406 42.664062 106.875 43.5 107.382812 C 44.332031 107.886719 45.269531 108.195312 46.238281 108.296875 C 46.363281 108.28125 46.488281 108.292969 46.609375 108.328125 C 46.730469 108.363281 46.84375 108.425781 46.941406 108.507812 C 47.109375 108.695312 47.238281 108.917969 47.320312 109.160156 C 47.402344 109.402344 47.429688 109.660156 47.410156 109.910156 C 47.453125 110.019531 47.457031 110.15625 47.464844 110.253906 Z M 47.464844 110.253906 "/>
<path style=" stroke:none;fill-rule:nonzero;fill:rgb(21.568628%,20.392157%,20.784314%);fill-opacity:1;" d="M 65.113281 93.660156 C 65.484375 98.554688 65.410156 103.46875 64.898438 108.347656 C 64.875 109.03125 64.671875 109.699219 64.3125 110.28125 C 63.949219 110.863281 63.441406 111.34375 62.839844 111.671875 C 58.945312 114.5625 45.890625 115.257812 44.265625 109.109375 C 43.664062 109.089844 44.140625 107.101562 43.570312 107.175781 C 42.429688 107.082031 41.324219 106.722656 40.347656 106.121094 C 39.371094 105.523438 38.546875 104.703125 37.945312 103.730469 C 37.96875 97.007812 38.710938 72.757812 26.695312 79.289062 C 24.082031 80.742188 22.125 83.136719 21.21875 85.988281 C 20.410156 88.472656 20.03125 91.078125 20.09375 93.6875 C 20 97.035156 20.835938 100.695312 20.957031 104.714844 C 21.003906 106.507812 21.289062 106.964844 19.953125 108.492188 C 17.804688 110.953125 14.046875 108.878906 12.019531 106.171875 C 11.160156 104.808594 10.691406 103.238281 10.65625 101.628906 C 9.042969 84.070312 10.632812 66.367188 15.34375 49.375 C 17.0625 43.609375 17.664062 42.773438 23.136719 41.480469 C 29.367188 40.113281 35.773438 39.734375 42.121094 40.355469 C 47.046875 38.75 58.738281 30.070312 63.78125 36.960938 C 71.4375 35.261719 79.351562 35.113281 87.0625 36.523438 C 94.773438 37.929688 102.125 40.871094 108.683594 45.164062 C 115.328125 45.667969 121.992188 45.789062 128.648438 45.523438 C 129.585938 44.925781 130.683594 44.28125 131.640625 43.730469 C 132.34375 43.257812 133.128906 42.921875 133.960938 42.75 C 135.039062 42.582031 136.445312 42.535156 136.773438 43.875 C 137.058594 45.25 137.152344 46.660156 137.058594 48.0625 C 137.023438 48.90625 136.710938 49.714844 136.164062 50.359375 C 135.617188 51.003906 134.871094 51.449219 134.042969 51.625 C 132.171875 51.316406 130.359375 50.730469 128.664062 49.878906 C 122.570312 50.046875 118.820312 49.710938 112.726562 49.878906 C 113.703125 50.929688 113.664062 51.625 114.375 53.011719 C 116.128906 57.621094 116.710938 62.589844 116.078125 67.480469 C 115.445312 72.371094 113.609375 77.027344 110.742188 81.039062 C 110.3125 88.023438 110.835938 95.078125 110.886719 102.085938 C 110.910156 104.496094 111.078125 106.796875 108.804688 108.398438 C 106.800781 109.601562 104.546875 110.328125 102.21875 110.523438 C 99.886719 110.71875 97.542969 110.378906 95.367188 109.523438 C 94.179688 108.84375 93.121094 107.960938 92.234375 106.917969 C 91.457031 106.996094 90.671875 107.015625 89.890625 106.964844 C 88.5625 106.597656 87.414062 105.753906 86.664062 104.597656 C 86.230469 103.808594 85.863281 102.984375 85.5625 102.136719 C 85.5625 98.855469 85.4375 97.570312 85.4375 94.292969 C 78.679688 95.5 71.746094 95.304688 65.066406 93.722656 Z M 65.113281 93.660156 "/>
<path style=" stroke:none;fill-rule:nonzero;fill:rgb(21.568628%,20.392157%,20.784314%);fill-opacity:1;" d="M 53.90625 114.558594 C 51.96875 114.582031 50.042969 114.289062 48.203125 113.695312 C 47.179688 113.421875 46.234375 112.914062 45.445312 112.210938 C 44.652344 111.507812 44.035156 110.628906 43.644531 109.644531 C 43.304688 109.21875 43.136719 108.679688 43.175781 108.136719 L 43.175781 107.925781 C 41.984375 107.746094 40.847656 107.316406 39.835938 106.660156 C 38.824219 106.003906 37.964844 105.140625 37.316406 104.121094 L 37.203125 103.941406 L 37.203125 102.722656 C 37.246094 97.179688 37.355469 82.457031 32.359375 79.460938 C 31.515625 79.054688 30.582031 78.882812 29.648438 78.964844 C 28.71875 79.046875 27.828125 79.382812 27.070312 79.929688 C 24.609375 81.304688 22.765625 83.566406 21.914062 86.253906 C 21.144531 88.660156 20.78125 91.175781 20.84375 93.699219 C 20.84375 95.582031 20.976562 97.460938 21.242188 99.324219 C 21.445312 101.042969 21.652344 102.820312 21.710938 104.695312 C 21.707031 104.96875 21.71875 105.214844 21.746094 105.425781 C 21.851562 106.074219 21.796875 106.738281 21.582031 107.359375 C 21.371094 107.980469 21.007812 108.542969 20.527344 108.988281 C 20.144531 109.4375 19.664062 109.792969 19.125 110.027344 C 18.585938 110.261719 17.996094 110.367188 17.410156 110.339844 C 16.207031 110.171875 15.054688 109.757812 14.023438 109.117188 C 12.996094 108.476562 12.109375 107.628906 11.429688 106.628906 C 10.464844 105.15625 9.941406 103.445312 9.917969 101.691406 C 8.285156 84.039062 9.886719 66.234375 14.644531 49.15625 C 16.402344 43.273438 17.175781 42.125 22.984375 40.753906 C 29.238281 39.375 35.675781 38.984375 42.050781 39.59375 C 43.457031 39.054688 44.824219 38.425781 46.152344 37.71875 C 51.929688 34.832031 59.792969 30.90625 64.109375 36.15625 C 71.761719 34.503906 79.667969 34.386719 87.363281 35.808594 C 95.0625 37.234375 102.402344 40.167969 108.957031 44.445312 C 115.4375 44.9375 121.941406 45.054688 128.4375 44.792969 C 129.351562 44.226562 130.371094 43.613281 131.277344 43.09375 L 131.539062 42.941406 C 132.246094 42.484375 133.03125 42.164062 133.855469 42.003906 C 135.9375 41.679688 137.136719 42.253906 137.496094 43.695312 C 137.796875 45.144531 137.898438 46.625 137.804688 48.097656 C 137.757812 49.121094 137.363281 50.101562 136.691406 50.875 C 136.019531 51.648438 135.101562 52.171875 134.09375 52.359375 L 133.972656 52.359375 L 133.855469 52.328125 C 133.453125 52.222656 133.046875 52.125 132.636719 52.035156 C 131.183594 51.78125 129.78125 51.308594 128.46875 50.628906 C 125.503906 50.703125 123.054688 50.664062 120.695312 50.628906 C 118.664062 50.597656 116.578125 50.558594 114.160156 50.597656 C 114.308594 50.890625 114.417969 51.179688 114.535156 51.46875 C 114.691406 51.875 114.867188 52.277344 115.058594 52.667969 C 116.878906 57.378906 117.507812 62.464844 116.882812 67.476562 C 116.261719 72.484375 114.410156 77.261719 111.492188 81.382812 C 111.230469 85.914062 111.367188 90.558594 111.492188 95.046875 C 111.558594 97.355469 111.628906 99.734375 111.648438 102.078125 L 111.648438 102.484375 C 111.871094 103.6875 111.769531 104.929688 111.347656 106.078125 C 110.921875 107.226562 110.199219 108.242188 109.246094 109.011719 C 107.140625 110.292969 104.765625 111.070312 102.308594 111.277344 C 99.855469 111.488281 97.382812 111.125 95.089844 110.21875 C 94.082031 109.71875 93.183594 109.019531 92.445312 108.167969 C 92.285156 107.996094 92.117188 107.832031 91.949219 107.671875 C 91.71875 107.671875 91.480469 107.699219 91.269531 107.722656 C 90.757812 107.800781 90.234375 107.789062 89.722656 107.695312 C 88.214844 107.277344 86.914062 106.324219 86.054688 105.019531 C 85.722656 104.484375 85.457031 103.917969 85.25 103.328125 C 85.144531 103.027344 85.023438 102.734375 84.894531 102.445312 L 84.828125 102.300781 L 84.828125 102.140625 C 84.828125 100.515625 84.800781 99.355469 84.769531 98.242188 C 84.746094 97.304688 84.71875 96.367188 84.710938 95.152344 C 78.492188 96.175781 72.132812 96.03125 65.960938 94.71875 C 66.230469 99.296875 66.117188 103.886719 65.625 108.445312 C 65.589844 109.226562 65.359375 109.988281 64.949219 110.65625 C 64.539062 111.320312 63.964844 111.871094 63.28125 112.257812 C 60.433594 113.882812 57.183594 114.679688 53.90625 114.558594 Z M 44.675781 108.378906 L 44.84375 108.378906 L 44.984375 108.914062 C 45.265625 109.742188 45.753906 110.488281 46.402344 111.078125 C 47.050781 111.664062 47.839844 112.078125 48.695312 112.28125 C 53.242188 113.671875 58.15625 113.238281 62.390625 111.066406 C 62.910156 110.800781 63.347656 110.398438 63.65625 109.902344 C 63.96875 109.40625 64.136719 108.835938 64.148438 108.253906 C 64.640625 103.621094 64.726562 98.953125 64.40625 94.304688 L 64.007812 94.191406 L 65.625 90.960938 L 65.816406 93.132812 C 72.242188 94.550781 78.882812 94.6875 85.359375 93.542969 L 86.207031 93.429688 L 86.207031 94.285156 C 86.207031 95.910156 86.234375 97.070312 86.269531 98.183594 C 86.300781 99.300781 86.324219 100.402344 86.328125 101.96875 C 86.445312 102.242188 86.554688 102.511719 86.652344 102.773438 C 86.816406 103.265625 87.035156 103.734375 87.304688 104.179688 C 87.960938 105.183594 88.960938 105.917969 90.117188 106.242188 C 90.453125 106.296875 90.792969 106.296875 91.128906 106.242188 C 91.507812 106.199219 91.890625 106.179688 92.273438 106.179688 L 92.554688 106.179688 L 92.761719 106.371094 C 93.015625 106.609375 93.265625 106.84375 93.519531 107.121094 C 94.117188 107.832031 94.851562 108.414062 95.675781 108.839844 C 97.734375 109.640625 99.953125 109.964844 102.152344 109.78125 C 104.355469 109.601562 106.488281 108.917969 108.390625 107.789062 C 110.207031 106.503906 110.183594 104.742188 110.15625 102.507812 L 110.15625 102.097656 C 110.15625 99.753906 110.070312 97.410156 110.003906 95.101562 C 109.867188 90.472656 109.726562 85.691406 110.003906 81 L 110.003906 80.691406 L 110.234375 80.484375 C 112.996094 76.597656 114.757812 72.089844 115.363281 67.359375 C 115.964844 62.628906 115.394531 57.824219 113.699219 53.367188 C 113.480469 52.929688 113.28125 52.480469 113.109375 52.023438 C 112.921875 51.417969 112.601562 50.863281 112.171875 50.398438 L 111.042969 49.1875 L 112.695312 49.140625 C 115.761719 49.054688 118.265625 49.097656 120.695312 49.140625 C 123.121094 49.179688 125.59375 49.222656 128.621094 49.140625 L 128.839844 49.140625 L 129.027344 49.257812 C 130.25 49.917969 131.570312 50.378906 132.941406 50.609375 L 134.078125 50.878906 C 134.691406 50.6875 135.234375 50.308594 135.632812 49.800781 C 136.027344 49.289062 136.253906 48.667969 136.285156 48.023438 C 136.382812 46.695312 136.289062 45.355469 136.011719 44.054688 C 135.945312 43.765625 135.820312 43.234375 134.0625 43.503906 C 133.421875 43.636719 132.808594 43.886719 132.261719 44.246094 L 131.996094 44.394531 C 131.058594 44.933594 129.976562 45.585938 129.039062 46.171875 L 128.90625 46.265625 L 128.703125 46.265625 C 122.019531 46.542969 115.324219 46.421875 108.652344 45.90625 L 108.453125 45.90625 L 108.28125 45.78125 C 101.804688 41.539062 94.542969 38.632812 86.925781 37.246094 C 79.308594 35.855469 71.488281 36.011719 63.933594 37.695312 L 63.464844 37.78125 L 63.1875 37.40625 C 59.6875 32.625 52.246094 36.34375 46.8125 39.054688 C 45.375 39.824219 43.886719 40.496094 42.359375 41.070312 L 42.210938 41.117188 L 42.054688 41.117188 C 35.785156 40.5 29.460938 40.875 23.304688 42.226562 C 18.050781 43.460938 17.679688 44.101562 16.054688 49.601562 C 11.347656 66.503906 9.757812 84.117188 11.367188 101.585938 C 11.382812 103.054688 11.800781 104.488281 12.578125 105.730469 C 13.128906 106.554688 13.84375 107.257812 14.675781 107.792969 C 15.507812 108.328125 16.441406 108.691406 17.417969 108.851562 C 17.785156 108.875 18.148438 108.808594 18.488281 108.664062 C 18.824219 108.519531 19.121094 108.296875 19.355469 108.015625 C 19.707031 107.714844 19.972656 107.324219 20.125 106.882812 C 20.273438 106.445312 20.304688 105.972656 20.207031 105.519531 C 20.207031 105.289062 20.179688 105.050781 20.175781 104.753906 C 20.101562 102.996094 19.945312 101.25 19.707031 99.511719 C 19.4375 97.582031 19.300781 95.632812 19.296875 93.683594 C 19.226562 90.980469 19.625 88.285156 20.476562 85.714844 C 21.449219 82.707031 23.527344 80.179688 26.289062 78.640625 C 27.265625 77.953125 28.414062 77.546875 29.605469 77.464844 C 30.800781 77.382812 31.992188 77.628906 33.054688 78.171875 C 38.789062 81.609375 38.679688 96.40625 38.632812 102.726562 L 38.632812 103.507812 C 39.175781 104.324219 39.898438 105.007812 40.738281 105.511719 C 41.582031 106.011719 42.523438 106.316406 43.5 106.40625 C 43.625 106.390625 43.753906 106.402344 43.875 106.441406 C 43.992188 106.476562 44.105469 106.535156 44.203125 106.617188 C 44.371094 106.808594 44.5 107.03125 44.582031 107.273438 C 44.664062 107.515625 44.695312 107.769531 44.671875 108.023438 Z M 44.675781 108.378906 "/>
<path style=" stroke:none;fill-rule:nonzero;fill:rgb(41.176471%,47.058824%,67.058825%);fill-opacity:1;" d="M 87.054688 93.496094 C 88.558594 93.34375 90.042969 93.046875 91.492188 92.609375 C 92.214844 96.867188 92.429688 101.191406 92.132812 105.496094 C 91.039062 105.5625 89.949219 105.304688 89.003906 104.75 C 88.054688 104.199219 87.296875 103.375 86.816406 102.390625 C 86.574219 99.425781 86.65625 96.445312 87.054688 93.496094 Z M 87.054688 93.496094 "/>
<path style=" stroke:none;fill-rule:nonzero;fill:rgb(21.568628%,20.392157%,20.784314%);fill-opacity:1;" d="M 91.976562 106.246094 C 90.773438 106.289062 89.578125 105.976562 88.546875 105.355469 C 87.511719 104.730469 86.683594 103.820312 86.15625 102.734375 L 86.085938 102.605469 L 86.085938 102.453125 C 85.84375 99.4375 85.921875 96.398438 86.328125 93.398438 L 86.40625 92.816406 L 86.984375 92.75 C 88.441406 92.609375 89.878906 92.324219 91.273438 91.898438 L 92.042969 91.648438 L 92.230469 92.4375 C 92.933594 96.277344 93.167969 100.1875 92.921875 104.082031 L 92.882812 106.234375 L 92.160156 106.234375 Z M 87.554688 102.167969 C 87.917969 102.890625 88.464844 103.503906 89.140625 103.953125 C 89.816406 104.402344 90.59375 104.664062 91.402344 104.722656 L 91.402344 104.046875 C 91.601562 100.546875 91.445312 97.03125 90.933594 93.558594 C 89.882812 93.835938 88.8125 94.039062 87.730469 94.167969 C 87.402344 96.828125 87.34375 99.515625 87.546875 102.1875 Z M 87.554688 102.167969 "/>
<path style=" stroke:none;fill-rule:nonzero;fill:url(#linear0);" d="M 18.992188 106.328125 C 17.9375 99.417969 16.867188 87.226562 21.804688 81.414062 C 22.203125 80.890625 22.625 80.386719 23.070312 79.90625 C 30.867188 72.566406 37.660156 78.882812 39.5 87.007812 C 39.894531 92.148438 39.976562 97.304688 39.742188 102.453125 C 40.203125 103.351562 40.914062 104.09375 41.785156 104.589844 C 42.660156 105.089844 43.660156 105.324219 44.667969 105.265625 C 45.382812 106.746094 45.191406 107.851562 46.007812 108.828125 C 47.554688 110.566406 49.585938 111.804688 51.839844 112.382812 C 54.09375 112.964844 56.46875 112.859375 58.664062 112.082031 C 60.132812 111.464844 61.5625 110.753906 62.945312 109.953125 C 64.066406 103.667969 63.910156 97.21875 62.476562 90.992188 C 62.476562 90.132812 62.1875 89.558594 62.1875 88.695312 C 62.726562 88.773438 63.230469 89 63.648438 89.34375 C 62.710938 92.785156 75.628906 95.152344 90.699219 90.992188 C 90.867188 90.394531 90.578125 89.652344 90.9375 89.4375 C 91.171875 89.292969 91.433594 89.199219 91.707031 89.164062 C 91.980469 89.132812 92.257812 89.160156 92.515625 89.246094 C 92.585938 90.347656 92.609375 91.421875 92.6875 92.527344 C 93.855469 92.628906 95.03125 92.644531 96.203125 92.574219 C 95.433594 93.265625 94.421875 93.625 93.390625 93.578125 C 93.652344 93.578125 93.242188 94.078125 93.484375 94.125 C 94.175781 94.292969 95.492188 94.03125 96.042969 94.269531 C 95.015625 94.871094 93.867188 94.53125 93.171875 95.207031 C 93.34375 98.863281 93.4375 102.789062 93.582031 106.457031 C 95.839844 108.175781 98.632812 109.046875 101.46875 108.917969 C 104.300781 108.792969 107.003906 107.675781 109.101562 105.765625 C 109.550781 98.417969 109.394531 91.050781 108.632812 83.734375 C 108.085938 83.664062 107.53125 83.5625 106.984375 83.492188 C 115.546875 71.972656 117.195312 60.183594 110.019531 49.542969 C 109.949219 49.074219 109.636719 48.605469 109.550781 48.136719 C 115.796875 47.898438 122.207031 48.542969 128.46875 48.304688 C 130.160156 48.945312 131.90625 49.433594 133.683594 49.761719 C 135.523438 49.117188 135.859375 44 134.042969 44.574219 C 132.230469 45.144531 131.230469 46.292969 129.285156 47.011719 C 122.109375 47.011719 114.144531 46.726562 106.972656 46.726562 C 101.117188 42.066406 94.183594 38.957031 86.8125 37.6875 C 79.4375 36.417969 71.863281 37.023438 64.785156 39.453125 C 66.964844 44.148438 68.195312 49.226562 68.40625 54.394531 C 68.613281 59.566406 67.796875 64.726562 66.003906 69.582031 C 65.597656 70.921875 59.40625 74.839844 64.472656 70.5625 C 69.589844 66.210938 66.382812 35.992188 60.09375 35.9375 C 52.691406 36.015625 45.585938 38.859375 40.171875 43.90625 C 39.191406 42.859375 39.261719 43.285156 39.703125 41.804688 C 34.347656 41.34375 28.957031 41.820312 23.765625 43.210938 C 22.421875 43.253906 21.121094 43.703125 20.035156 44.496094 C 18.945312 45.289062 18.125 46.390625 17.671875 47.65625 C 12.945312 64.5625 11.046875 82.136719 12.046875 99.660156 C 12.292969 101.761719 12.851562 103.816406 13.695312 105.753906 C 16.507812 108.839844 18.027344 107.953125 18.960938 106.328125 Z M 18.992188 106.328125 "/>
<path style=" stroke:none;fill-rule:nonzero;fill:rgb(21.568628%,20.392157%,20.784314%);fill-opacity:1;" d="M 30.214844 48.851562 C 28.636719 48.210938 26.925781 47.972656 25.234375 48.15625 C 25.078125 48.136719 24.921875 48.175781 24.789062 48.261719 C 24.660156 48.347656 24.5625 48.472656 24.515625 48.625 C 24.453125 48.730469 24.410156 48.851562 24.394531 48.976562 C 24.378906 49.097656 24.386719 49.226562 24.421875 49.34375 C 24.566406 49.753906 24.589844 49.730469 24.945312 49.8125 C 25.417969 49.882812 25.902344 49.84375 26.351562 49.691406 C 26.886719 49.410156 27.476562 49.246094 28.082031 49.21875 C 28.6875 49.1875 29.289062 49.292969 29.851562 49.523438 C 30.375 49.5 30.425781 49.285156 30.257812 48.871094 Z M 30.214844 48.851562 "/>
<path style=" stroke:none;fill-rule:nonzero;fill:rgb(21.568628%,20.392157%,20.784314%);fill-opacity:1;" d="M 25.339844 50.582031 C 25.15625 50.582031 24.96875 50.5625 24.789062 50.527344 L 24.726562 50.527344 C 24.480469 50.5 24.246094 50.390625 24.066406 50.222656 C 23.882812 50.054688 23.757812 49.832031 23.710938 49.589844 C 23.644531 49.367188 23.625 49.136719 23.648438 48.910156 C 23.671875 48.679688 23.742188 48.460938 23.855469 48.257812 C 23.960938 47.996094 24.144531 47.777344 24.382812 47.625 C 24.621094 47.472656 24.898438 47.398438 25.179688 47.414062 C 26.929688 47.230469 28.699219 47.46875 30.335938 48.113281 L 30.722656 48.113281 L 30.914062 48.582031 C 31.023438 48.757812 31.078125 48.960938 31.074219 49.167969 C 31.074219 49.375 31.015625 49.578125 30.902344 49.753906 C 30.792969 49.929688 30.636719 50.070312 30.449219 50.160156 C 30.261719 50.25 30.054688 50.285156 29.851562 50.265625 L 29.738281 50.265625 L 29.609375 50.226562 C 29.148438 50.027344 28.648438 49.929688 28.144531 49.949219 C 27.644531 49.96875 27.152344 50.097656 26.703125 50.328125 L 26.621094 50.382812 L 26.527344 50.40625 C 26.140625 50.515625 25.742188 50.574219 25.339844 50.582031 Z M 25.132812 49.070312 C 25.449219 49.101562 25.769531 49.070312 26.070312 48.976562 L 26.324219 48.847656 C 25.996094 48.847656 25.664062 48.847656 25.328125 48.898438 L 25.203125 48.898438 L 25.175781 48.957031 Z M 26.351562 54.78125 C 26.566406 54.335938 26.90625 53.964844 27.328125 53.703125 C 27.75 53.445312 28.234375 53.316406 28.730469 53.324219 C 28.824219 52.726562 28.730469 52.386719 27.960938 52.386719 C 26.871094 52.941406 25.9375 53.765625 25.25 54.777344 C 24.859375 55.660156 24.730469 56.636719 24.890625 57.589844 C 24.976562 58.242188 25.3125 58.832031 25.828125 59.242188 C 26.363281 59.570312 26.984375 59.734375 27.613281 59.710938 C 28.242188 59.683594 28.847656 59.46875 29.351562 59.09375 C 31.03125 58.117188 32.710938 55.316406 29.761719 54.261719 C 29.171875 54.144531 28.5625 54.148438 27.972656 54.273438 C 27.382812 54.398438 26.824219 54.636719 26.328125 54.980469 C 26.28125 55.003906 26.257812 54.910156 26.328125 54.789062 Z M 26.351562 54.78125 "/>
<path style=" stroke:none;fill-rule:nonzero;fill:rgb(21.568628%,20.392157%,20.784314%);fill-opacity:1;" d="M 27.261719 60.496094 C 26.566406 60.511719 25.886719 60.273438 25.351562 59.832031 C 24.6875 59.296875 24.257812 58.527344 24.148438 57.683594 C 23.957031 56.570312 24.121094 55.421875 24.617188 54.402344 C 25.367188 53.277344 26.394531 52.359375 27.59375 51.742188 L 27.757812 51.640625 L 27.9375 51.640625 C 28.167969 51.621094 28.398438 51.648438 28.617188 51.726562 C 28.835938 51.804688 29.03125 51.925781 29.199219 52.085938 C 29.339844 52.28125 29.4375 52.5 29.484375 52.734375 C 29.53125 52.96875 29.527344 53.210938 29.46875 53.441406 C 30.109375 53.535156 30.703125 53.820312 31.171875 54.261719 C 31.644531 54.699219 31.972656 55.269531 32.113281 55.898438 C 32.085938 56.691406 31.851562 57.464844 31.433594 58.140625 C 31.015625 58.816406 30.429688 59.375 29.734375 59.757812 C 28.988281 60.214844 28.136719 60.46875 27.261719 60.496094 Z M 25.75 55.5 C 25.578125 56.160156 25.539062 56.847656 25.636719 57.523438 C 25.703125 57.988281 25.945312 58.402344 26.316406 58.6875 C 27.21875 59.441406 28.6875 58.636719 28.972656 58.46875 C 29.425781 58.226562 29.8125 57.882812 30.097656 57.457031 C 30.386719 57.035156 30.566406 56.546875 30.625 56.039062 C 30.582031 55.570312 30.207031 55.234375 29.511719 54.984375 C 28.539062 54.835938 27.542969 55.066406 26.734375 55.632812 L 26.671875 55.664062 L 26.171875 55.917969 L 25.757812 55.5 Z M 25.75 55.5 "/>
<path style=" stroke:none;fill-rule:nonzero;fill:rgb(99.607843%,99.607843%,99.607843%);fill-opacity:1;" d="M 27.65625 58.035156 C 27.667969 58.207031 27.699219 58.375 27.753906 58.539062 C 27.777344 58.613281 27.8125 58.6875 27.851562 58.753906 C 27.714844 58.84375 27.558594 58.898438 27.394531 58.914062 C 27.234375 58.929688 27.066406 58.90625 26.914062 58.847656 C 25.878906 58.378906 25.953125 56.925781 26.484375 56.136719 C 26.761719 55.730469 27.128906 55.394531 27.5625 55.15625 C 27.992188 54.921875 28.472656 54.785156 28.964844 54.769531 C 29.515625 55.054688 29.6875 55.320312 29.394531 55.390625 C 29.230469 55.421875 29.070312 55.476562 28.925781 55.5625 C 28.816406 55.609375 28.714844 55.683594 28.632812 55.773438 C 28.554688 55.867188 28.492188 55.972656 28.457031 56.089844 C 28.695312 56.160156 28.820312 56.089844 29.035156 56.183594 L 29.035156 56.929688 C 28.804688 56.8125 28.539062 56.78125 28.289062 56.835938 C 27.820312 56.980469 27.636719 57.652344 27.636719 58.058594 Z M 27.65625 58.035156 "/>
<path style=" stroke:none;fill-rule:nonzero;fill:rgb(21.568628%,20.392157%,20.784314%);fill-opacity:1;" d="M 29.640625 77.152344 C 30.96875 76.867188 32.226562 76.320312 33.339844 75.546875 C 34.457031 74.773438 35.40625 73.785156 36.140625 72.640625 C 36.871094 71.496094 37.367188 70.21875 37.601562 68.878906 C 37.835938 67.542969 37.800781 66.171875 37.5 64.847656 C 36.660156 64.828125 35.839844 64.605469 35.105469 64.199219 C 35.058594 63.890625 35.035156 63.578125 34.984375 63.261719 C 36.921875 64.199219 39.671875 64.480469 39.3125 61.515625 C 39.578125 61.445312 39.984375 61.421875 40.25 61.34375 C 40.15625 63.425781 39.78125 63.617188 38.503906 64.503906 C 38.871094 66.773438 38.679688 69.097656 37.945312 71.277344 C 37.207031 73.453125 35.953125 75.417969 34.285156 77 C 34.1875 77.652344 34.246094 78.316406 34.453125 78.941406 C 33.839844 78.300781 33.085938 77.808594 32.253906 77.503906 C 31.417969 77.203125 30.527344 77.09375 29.644531 77.195312 Z M 29.640625 77.152344 "/>
<path style=" stroke:none;fill-rule:nonzero;fill:rgb(21.568628%,20.392157%,20.784314%);fill-opacity:1;" d="M 35.773438 81.519531 L 33.898438 79.449219 C 33.355469 78.886719 32.6875 78.460938 31.953125 78.199219 C 31.214844 77.941406 30.429688 77.855469 29.652344 77.949219 L 28.894531 77.949219 L 28.894531 76.636719 L 29.421875 76.425781 C 31.835938 75.929688 33.960938 74.515625 35.347656 72.476562 C 36.734375 70.441406 37.273438 67.945312 36.847656 65.515625 C 36.085938 65.464844 35.351562 65.230469 34.703125 64.828125 L 34.410156 64.644531 L 34.359375 64.3125 L 34.292969 63.820312 L 34.238281 63.378906 L 34.023438 61.972656 L 35.300781 62.59375 C 35.730469 62.871094 36.21875 63.046875 36.722656 63.113281 C 37.230469 63.175781 37.746094 63.128906 38.230469 62.96875 C 38.53125 62.753906 38.640625 62.300781 38.5625 61.601562 L 38.492188 60.964844 L 39.113281 60.796875 C 39.296875 60.75 39.484375 60.71875 39.671875 60.695312 L 40.046875 60.628906 L 41.039062 60.355469 L 40.992188 61.382812 C 40.894531 63.519531 40.425781 64.058594 39.300781 64.859375 C 39.59375 67.140625 39.355469 69.457031 38.601562 71.625 C 37.851562 73.796875 36.605469 75.761719 34.964844 77.371094 C 34.96875 77.769531 35.023438 78.167969 35.128906 78.554688 Z M 32.492188 76.796875 C 32.835938 76.90625 33.164062 77.046875 33.476562 77.21875 C 33.492188 77.058594 33.523438 76.898438 33.578125 76.75 L 33.628906 76.597656 L 33.734375 76.480469 C 34.136719 76.054688 34.507812 75.625 34.847656 75.191406 C 34.128906 75.816406 33.339844 76.355469 32.492188 76.796875 Z M 32.492188 76.796875 "/>
<path style=" stroke:none;fill-rule:nonzero;fill:rgb(50.196081%,57.647061%,81.568629%);fill-opacity:1;" d="M 103.859375 108.8125 C 103.742188 107.042969 103.527344 105.492188 103.476562 103.71875 C 103.359375 99.660156 100.273438 98.773438 100.105469 102.835938 C 100.011719 104.964844 100.105469 106.96875 100.105469 108.976562 C 101.355469 109.152344 102.628906 109.09375 103.859375 108.8125 Z M 103.859375 108.8125 "/>
<path style=" stroke:none;fill-rule:nonzero;fill:rgb(21.568628%,20.392157%,20.784314%);fill-opacity:1;" d="M 101.902344 109.3125 C 101.4375 109.308594 100.988281 109.289062 100.546875 109.257812 L 99.84375 109.21875 L 99.84375 106.992188 C 99.84375 105.652344 99.800781 104.265625 99.84375 102.835938 C 99.933594 100.710938 100.78125 99.957031 101.535156 99.957031 C 102.535156 99.957031 103.632812 101.28125 103.707031 103.707031 C 103.734375 104.789062 103.828125 105.777344 103.921875 106.824219 C 103.984375 107.457031 104.039062 108.109375 104.085938 108.78125 L 104.085938 108.984375 L 103.894531 109.039062 C 103.246094 109.226562 102.574219 109.316406 101.902344 109.3125 Z M 100.359375 108.75 L 100.585938 108.75 C 101.589844 108.867188 102.609375 108.820312 103.597656 108.613281 C 103.550781 108.015625 103.503906 107.4375 103.449219 106.871094 C 103.351562 105.816406 103.261719 104.820312 103.226562 103.71875 C 103.167969 101.699219 102.289062 100.4375 101.554688 100.4375 C 101.046875 100.4375 100.433594 101.066406 100.359375 102.839844 C 100.292969 104.246094 100.316406 105.652344 100.359375 106.96875 Z M 100.359375 108.75 "/>
<path style=" stroke:none;fill-rule:nonzero;fill:rgb(50.196081%,57.647061%,81.568629%);fill-opacity:1;" d="M 100.164062 109.015625 C 99.824219 106.976562 99.695312 104.910156 99.78125 102.84375 C 100.046875 99.09375 96.5 95.140625 96.261719 102.101562 C 96.175781 104.136719 96.257812 106.175781 96.5 108.195312 C 97.699219 108.566406 98.921875 108.84375 100.164062 109.015625 Z M 100.164062 109.015625 "/>
<path style=" stroke:none;fill-rule:nonzero;fill:rgb(21.568628%,20.392157%,20.784314%);fill-opacity:1;" d="M 100.449219 109.316406 L 100.125 109.265625 C 98.871094 109.09375 97.632812 108.816406 96.421875 108.445312 L 96.273438 108.394531 L 96.273438 108.238281 C 96.023438 106.203125 95.945312 104.148438 96.03125 102.097656 C 96.109375 99.851562 96.5 98.523438 97.265625 98.136719 C 97.441406 98.050781 97.636719 98.011719 97.828125 98.03125 C 98.023438 98.050781 98.207031 98.125 98.363281 98.246094 C 98.976562 98.835938 99.445312 99.558594 99.738281 100.359375 C 100.03125 101.160156 100.140625 102.015625 100.054688 102.863281 C 99.949219 104.671875 100.035156 106.488281 100.3125 108.28125 Z M 96.726562 108.019531 C 97.757812 108.324219 98.808594 108.558594 99.871094 108.722656 L 99.824219 108.332031 C 99.535156 106.511719 99.4375 104.667969 99.53125 102.828125 C 99.609375 102.070312 99.519531 101.300781 99.265625 100.582031 C 99.011719 99.859375 98.601562 99.203125 98.0625 98.664062 C 97.980469 98.59375 97.882812 98.550781 97.78125 98.535156 C 97.675781 98.519531 97.566406 98.535156 97.472656 98.578125 C 97.214844 98.710938 96.605469 99.324219 96.507812 102.113281 C 96.425781 104.085938 96.496094 106.058594 96.726562 108.019531 Z M 96.726562 108.019531 "/>
<path style=" stroke:none;fill-rule:nonzero;fill:rgb(50.196081%,57.647061%,81.568629%);fill-opacity:1;" d="M 96.507812 108.515625 L 96.003906 100.546875 C 95.644531 94.597656 93.253906 95.292969 93.0625 100.191406 C 92.96875 102.507812 93.15625 103.773438 92.9375 106.09375 C 94.0625 106.855469 95.234375 108.359375 96.507812 108.484375 Z M 96.507812 108.515625 "/>
<path style=" stroke:none;fill-rule:nonzero;fill:rgb(21.568628%,20.392157%,20.784314%);fill-opacity:1;" d="M 96.484375 108.75 C 95.480469 108.503906 94.574219 107.964844 93.882812 107.199219 C 93.535156 106.886719 93.175781 106.59375 92.804688 106.316406 L 92.679688 106.234375 L 92.679688 106.085938 C 92.78125 104.964844 92.816406 103.839844 92.78125 102.710938 L 92.78125 100.199219 C 92.878906 97.703125 93.539062 96.078125 94.460938 96.070312 C 95.398438 96.070312 96.046875 97.742188 96.214844 100.550781 L 96.71875 108.519531 L 96.464844 108.519531 Z M 93.203125 105.988281 C 93.539062 106.234375 93.875 106.53125 94.210938 106.824219 C 94.785156 107.414062 95.472656 107.882812 96.234375 108.195312 L 95.765625 100.585938 C 95.585938 97.636719 94.917969 96.570312 94.507812 96.570312 C 94.085938 96.570312 93.417969 97.738281 93.324219 100.222656 C 93.28125 101.160156 93.296875 101.960938 93.324219 102.710938 C 93.347656 103.804688 93.304688 104.894531 93.203125 105.980469 Z M 93.203125 105.988281 "/>
<path style=" stroke:none;fill-rule:nonzero;fill:rgb(50.196081%,57.647061%,81.568629%);fill-opacity:1;" d="M 55.617188 112.632812 C 55.679688 110.765625 55.585938 108.898438 55.332031 107.046875 C 54.328125 102.734375 53.0625 102.207031 51.582031 105.394531 L 51.582031 112.554688 C 52.921875 112.738281 54.277344 112.753906 55.621094 112.601562 Z M 55.617188 112.632812 "/>
<path style=" stroke:none;fill-rule:nonzero;fill:rgb(21.568628%,20.392157%,20.784314%);fill-opacity:1;" d="M 54.101562 112.96875 C 53.324219 112.96875 52.546875 112.898438 51.78125 112.828125 L 51.3125 112.785156 L 51.3125 105.285156 C 52.027344 103.746094 52.726562 103.019531 53.414062 103.101562 C 54.265625 103.191406 54.941406 104.421875 55.539062 106.988281 L 55.585938 107.394531 C 55.816406 109.132812 55.898438 110.886719 55.832031 112.636719 L 55.589844 112.636719 L 55.621094 112.851562 C 55.121094 112.933594 54.613281 112.972656 54.101562 112.96875 Z M 51.824219 112.332031 C 53 112.484375 54.191406 112.503906 55.375 112.390625 C 55.421875 110.742188 55.335938 109.09375 55.121094 107.457031 L 55.078125 107.078125 C 54.394531 104.136719 53.726562 103.636719 53.394531 103.601562 C 53.136719 103.601562 52.609375 103.785156 51.824219 105.453125 Z M 51.824219 112.332031 "/>
<path style=" stroke:none;fill-rule:nonzero;fill:rgb(50.196081%,57.647061%,81.568629%);fill-opacity:1;" d="M 48.28125 111.449219 C 48.304688 108.703125 48.328125 106.882812 48.328125 104.136719 C 49.332031 100.097656 50.359375 100.503906 51.359375 105.355469 C 51.382812 107.960938 51.40625 109.660156 51.40625 112.261719 C 50.3125 112.21875 49.234375 111.941406 48.253906 111.449219 Z M 48.28125 111.449219 "/>
<path style=" stroke:none;fill-rule:nonzero;fill:rgb(21.568628%,20.392157%,20.784314%);fill-opacity:1;" d="M 51.640625 112.542969 L 51.21875 112.496094 C 50.136719 112.445312 49.078125 112.164062 48.113281 111.664062 L 47.292969 111.195312 L 48.015625 111.195312 L 48.015625 109.789062 C 48.015625 107.867188 48.046875 106.28125 48.046875 104.113281 L 48.046875 104.054688 C 48.554688 102.019531 49.050781 101.109375 49.664062 101.109375 C 50.132812 101.109375 50.792969 101.601562 51.539062 105.28125 L 51.539062 106.902344 C 51.539062 108.707031 51.570312 110.183594 51.570312 112.242188 Z M 48.515625 111.3125 C 49.339844 111.703125 50.234375 111.929688 51.144531 111.980469 C 51.144531 110.078125 51.144531 108.648438 51.113281 106.925781 L 51.113281 105.355469 C 50.375 101.828125 49.8125 101.632812 49.707031 101.632812 C 49.597656 101.632812 49.195312 101.691406 48.578125 104.164062 C 48.578125 106.316406 48.578125 107.914062 48.542969 109.820312 Z M 48.515625 111.3125 "/>
<path style=" stroke:none;fill-rule:nonzero;fill:rgb(50.196081%,57.647061%,81.568629%);fill-opacity:1;" d="M 44.53125 106.046875 C 44.675781 103.746094 45.15625 101.429688 45.296875 99.132812 C 44.359375 94.585938 43.335938 93.773438 42.261719 96.742188 C 42.214844 99.683594 42.191406 102.652344 42.144531 105.59375 C 42.851562 106.054688 43.707031 106.21875 44.535156 106.0625 Z M 44.53125 106.046875 "/>
<path style=" stroke:none;fill-rule:nonzero;fill:rgb(21.568628%,20.392157%,20.784314%);fill-opacity:1;" d="M 43.9375 106.40625 C 43.363281 106.378906 42.804688 106.214844 42.304688 105.9375 L 41.910156 105.757812 L 41.910156 105.59375 C 41.9375 104.121094 41.957031 102.648438 41.972656 101.171875 C 41.988281 99.691406 42.007812 98.214844 42.03125 96.742188 L 42.03125 96.660156 C 42.5 95.316406 43 94.710938 43.5625 94.75 C 44.125 94.785156 44.773438 95.316406 45.546875 99.089844 L 45.546875 99.15625 C 45.476562 100.3125 45.320312 101.496094 45.164062 102.628906 C 45.007812 103.757812 44.855469 104.925781 44.785156 106.058594 L 44.785156 106.273438 L 44.585938 106.316406 C 44.375 106.367188 44.15625 106.398438 43.9375 106.40625 Z M 42.417969 105.46875 L 42.511719 105.511719 C 43.050781 105.839844 43.6875 105.972656 44.316406 105.894531 C 44.390625 104.792969 44.539062 103.671875 44.691406 102.589844 C 44.839844 101.507812 44.996094 100.3125 45.070312 99.183594 C 44.335938 95.605469 43.714844 95.289062 43.542969 95.273438 C 43.449219 95.273438 43.074219 95.351562 42.535156 96.820312 C 42.507812 98.277344 42.488281 99.738281 42.472656 101.203125 C 42.457031 102.667969 42.4375 104.078125 42.417969 105.429688 Z M 42.417969 105.46875 "/>
<path style=" stroke:none;fill-rule:nonzero;fill:rgb(50.196081%,57.647061%,81.568629%);fill-opacity:1;" d="M 89.160156 105.320312 C 89.351562 102.878906 89.089844 100.84375 89.160156 98.453125 C 89.230469 95.554688 92.09375 96.394531 92.21875 99.050781 C 92.339844 101.710938 92.480469 103.074219 92.625 105.726562 C 91.464844 105.925781 90.269531 105.785156 89.1875 105.320312 Z M 89.160156 105.320312 "/>
<path style=" stroke:none;fill-rule:nonzero;fill:rgb(21.568628%,20.392157%,20.784314%);fill-opacity:1;" d="M 91.234375 106.023438 C 90.5 106.050781 89.769531 105.890625 89.117188 105.554688 L 88.914062 105.554688 L 88.914062 105.285156 C 89 103.980469 89.007812 102.671875 88.941406 101.367188 C 88.914062 100.429688 88.878906 99.460938 88.914062 98.433594 C 88.949219 96.921875 89.695312 96.378906 90.378906 96.375 C 91.316406 96.375 92.382812 97.382812 92.453125 99.027344 C 92.523438 100.382812 92.59375 101.371094 92.65625 102.40625 C 92.722656 103.445312 92.789062 104.390625 92.859375 105.6875 L 92.859375 105.941406 L 92.132812 105.96875 C 91.832031 106.003906 91.535156 106.019531 91.234375 106.023438 Z M 89.417969 105.160156 C 90.277344 105.515625 91.214844 105.632812 92.132812 105.496094 L 92.359375 105.496094 L 92.171875 102.460938 C 92.105469 101.441406 92.039062 100.429688 91.964844 99.070312 C 91.890625 97.710938 91.105469 96.890625 90.390625 96.890625 C 89.804688 96.890625 89.453125 97.484375 89.414062 98.464844 C 89.375 99.445312 89.414062 100.4375 89.441406 101.371094 C 89.5 102.632812 89.492188 103.898438 89.417969 105.160156 Z M 89.417969 105.160156 "/>
<path style=" stroke:none;fill-rule:nonzero;fill:rgb(72.549021%,77.254903%,91.764706%);fill-opacity:1;" d="M 89.011719 105.40625 C 88.941406 103.617188 88.964844 101.464844 88.894531 99.675781 C 89.0625 97.214844 87.367188 93.582031 86.699219 97.621094 C 86.492188 99.117188 86.367188 100.625 86.320312 102.136719 C 87.089844 103.324219 87.992188 104.421875 89.011719 105.40625 Z M 89.011719 105.40625 "/>
<path style=" stroke:none;fill-rule:nonzero;fill:rgb(21.568628%,20.392157%,20.784314%);fill-opacity:1;" d="M 89.277344 105.914062 L 88.859375 105.613281 C 88.039062 104.886719 87.316406 104.046875 86.71875 103.125 L 86.117188 102.308594 L 86.058594 102.234375 L 86.058594 102.140625 C 86.089844 101.671875 86.113281 101.203125 86.132812 100.828125 C 86.175781 99.75 86.277344 98.671875 86.441406 97.601562 C 86.527344 97.078125 86.789062 95.484375 87.628906 95.585938 C 88.566406 95.699219 89.234375 98.203125 89.132812 99.710938 C 89.171875 100.585938 89.179688 101.589844 89.195312 102.558594 C 89.207031 103.527344 89.21875 104.527344 89.253906 105.417969 Z M 86.570312 102.0625 C 86.734375 102.273438 86.921875 102.527344 87.125 102.820312 C 87.613281 103.535156 88.152344 104.214844 88.742188 104.851562 C 88.742188 104.109375 88.710938 103.316406 88.703125 102.546875 C 88.703125 101.582031 88.679688 100.578125 88.640625 99.6875 C 88.757812 97.945312 87.984375 96.113281 87.578125 96.066406 C 87.488281 96.039062 87.164062 96.320312 86.9375 97.664062 C 86.765625 98.710938 86.664062 99.769531 86.632812 100.832031 L 86.570312 102.054688 Z M 67.703125 72.464844 C 68.921875 66.652344 70.117188 60.839844 71.335938 55.003906 C 71.527344 53.640625 71.882812 52.421875 73.316406 52.296875 L 75.0625 52.296875 C 76.109375 52.296875 76.710938 52.921875 76.804688 54.171875 L 76.449219 56.757812 C 76.496094 57.8125 77.140625 58.40625 78.429688 58.503906 C 80.175781 58.574219 81.945312 58.671875 83.691406 58.742188 C 86.320312 58.914062 88.085938 60.039062 87.910156 63.3125 L 86.257812 71.972656 C 86.226562 72.640625 86 73.285156 85.601562 73.824219 C 85.207031 74.363281 84.664062 74.777344 84.039062 75.007812 C 83.25 74.960938 82.363281 75.054688 81.578125 75.007812 C 80.210938 75.078125 79.425781 74.578125 79.925781 72.78125 C 80.429688 70.507812 81.050781 67.664062 81.578125 65.390625 C 81.769531 62.6875 80.765625 62.546875 79.703125 62.351562 C 78.792969 62.230469 77.910156 62.351562 77 62.230469 C 75.660156 62.421875 75.160156 63.710938 74.78125 65.152344 C 74.207031 67.566406 73.609375 69.984375 73.035156 72.421875 C 72.773438 73.738281 72.488281 74.597656 71.507812 75.003906 L 68.59375 75.003906 C 67.492188 74.765625 67.179688 73.902344 67.65625 72.421875 Z M 67.703125 72.464844 "/>
<path style=" stroke:none;fill-rule:nonzero;fill:rgb(99.607843%,99.607843%,99.607843%);fill-opacity:1;" d="M 82.074219 75.515625 L 81.5625 75.515625 C 81.210938 75.574219 80.847656 75.546875 80.511719 75.433594 C 80.171875 75.324219 79.863281 75.128906 79.617188 74.875 C 79.410156 74.546875 79.285156 74.171875 79.253906 73.789062 C 79.21875 73.402344 79.28125 73.011719 79.433594 72.65625 L 79.71875 71.351562 C 80.15625 69.375 80.65625 67.167969 81.070312 65.324219 C 81.214844 63.144531 80.628906 63.039062 79.664062 62.859375 C 78.792969 62.742188 77.953125 62.859375 77.015625 62.746094 C 76.078125 62.914062 75.652344 63.847656 75.265625 65.289062 L 74.488281 68.515625 L 73.523438 72.546875 C 73.203125 73.898438 72.945312 74.957031 71.699219 75.476562 L 71.605469 75.515625 L 68.484375 75.515625 C 68.21875 75.472656 67.964844 75.371094 67.742188 75.222656 C 67.519531 75.074219 67.332031 74.878906 67.191406 74.648438 C 67.027344 74.277344 66.945312 73.878906 66.945312 73.476562 C 66.945312 73.074219 67.027344 72.675781 67.191406 72.304688 L 67.34375 71.835938 L 69.21875 62.746094 L 70.835938 54.960938 C 70.96875 54.023438 71.246094 52.03125 73.269531 51.863281 L 75.054688 51.863281 C 75.824219 51.863281 77.140625 52.164062 77.296875 54.207031 L 77.296875 54.257812 L 76.9375 56.84375 C 76.96875 57.375 77.1875 57.980469 78.453125 58.074219 L 81.085938 58.191406 L 83.695312 58.308594 C 84.363281 58.246094 85.035156 58.339844 85.660156 58.578125 C 86.285156 58.820312 86.847656 59.199219 87.300781 59.695312 C 87.753906 60.1875 88.089844 60.777344 88.277344 61.421875 C 88.464844 62.066406 88.5 62.742188 88.382812 63.402344 L 88.382812 63.46875 L 86.734375 72.132812 C 86.6875 72.886719 86.421875 73.609375 85.96875 74.214844 C 85.515625 74.824219 84.898438 75.285156 84.1875 75.542969 L 84.09375 75.578125 L 82.804688 75.578125 C 82.566406 75.507812 82.316406 75.515625 82.074219 75.515625 Z M 81.566406 74.503906 L 83.953125 74.503906 C 84.472656 74.285156 84.917969 73.921875 85.234375 73.460938 C 85.554688 73 85.738281 72.453125 85.757812 71.890625 L 87.402344 63.25 C 87.546875 60.613281 86.429688 59.414062 83.652344 59.242188 L 81.046875 59.125 L 78.40625 59 C 76.34375 58.847656 75.980469 57.542969 75.945312 56.78125 L 75.945312 56.71875 L 76.304688 54.144531 C 76.195312 52.945312 75.582031 52.789062 75.0625 52.789062 L 73.316406 52.789062 C 72.453125 52.867188 72.050781 53.460938 71.828125 55.0625 L 70.199219 62.882812 C 69.53125 66.109375 68.859375 69.335938 68.183594 72.558594 L 67.996094 73.460938 L 67.941406 73.40625 C 67.90625 73.648438 67.941406 73.894531 68.046875 74.113281 C 68.1875 74.3125 68.402344 74.449219 68.640625 74.492188 L 71.390625 74.492188 C 72.0625 74.175781 72.289062 73.554688 72.535156 72.308594 L 73.503906 68.253906 L 74.28125 65.015625 C 74.570312 63.945312 75.089844 61.976562 76.921875 61.734375 L 77.058594 61.734375 C 77.910156 61.847656 78.800781 61.734375 79.757812 61.855469 L 79.824219 61.855469 C 81.164062 62.101562 82.257812 62.535156 82.054688 65.414062 L 82.054688 65.492188 C 81.628906 67.339844 81.117188 69.5625 80.699219 71.550781 L 80.40625 72.882812 C 80.21875 73.554688 80.21875 74.007812 80.40625 74.234375 C 80.6875 74.578125 81.140625 74.523438 81.542969 74.503906 Z M 81.566406 74.503906 "/>
<path style=" stroke:none;fill-rule:nonzero;fill:rgb(21.568628%,20.392157%,20.784314%);fill-opacity:1;" d="M 45.113281 79.191406 C 46.308594 72.992188 47.527344 66.796875 48.726562 60.625 C 48.710938 60.34375 48.753906 60.0625 48.855469 59.800781 C 48.957031 59.539062 49.109375 59.300781 49.308594 59.101562 C 49.507812 58.902344 49.746094 58.746094 50.007812 58.648438 C 50.269531 58.546875 50.550781 58.503906 50.832031 58.519531 L 61.835938 58.519531 C 62.886719 58.488281 63.921875 58.742188 64.839844 59.257812 C 65.753906 59.773438 66.507812 60.527344 67.027344 61.4375 C 67.757812 62.773438 68.070312 64.300781 67.914062 65.816406 C 67.675781 68.417969 66.523438 70.855469 64.660156 72.683594 C 63.128906 73.96875 61.261719 74.785156 59.277344 75.027344 C 57.402344 75.074219 55.527344 75.097656 53.652344 75.148438 C 52.574219 75.054688 51.5 75.34375 51.238281 76.203125 C 50.90625 77.375 50.667969 78.546875 50.328125 79.695312 C 50.210938 79.957031 50.039062 80.1875 49.828125 80.371094 C 49.613281 80.558594 49.359375 80.695312 49.085938 80.773438 C 48.007812 80.796875 46.914062 80.796875 45.835938 80.820312 C 44.679688 80.839844 44.921875 80.15625 45.113281 79.191406 Z M 52.789062 68.570312 C 53.101562 66.941406 53.484375 65.101562 53.769531 63.664062 C 53.921875 63.234375 54.207031 62.863281 54.589844 62.613281 C 54.96875 62.359375 55.417969 62.234375 55.875 62.257812 C 57.011719 62.175781 58.148438 62.324219 59.226562 62.691406 C 59.699219 62.882812 60.125 63.167969 60.476562 63.535156 C 60.828125 63.90625 61.097656 64.34375 61.265625 64.820312 C 61.4375 65.300781 61.503906 65.8125 61.460938 66.320312 C 61.417969 66.824219 61.269531 67.316406 61.023438 67.761719 C 60.605469 68.542969 60.035156 69.238281 59.351562 69.800781 C 58.667969 70.363281 57.875 70.785156 57.027344 71.042969 C 56.246094 71.242188 55.441406 71.324219 54.636719 71.28125 C 52.578125 71.066406 52.410156 70.519531 52.761719 68.554688 Z M 52.789062 68.570312 "/>
<path style=" stroke:none;fill-rule:nonzero;fill:rgb(99.607843%,99.607843%,99.607843%);fill-opacity:1;" d="M 45.777344 81.320312 C 45.578125 81.339844 45.375 81.316406 45.1875 81.246094 C 45 81.175781 44.828125 81.066406 44.691406 80.921875 C 44.335938 80.492188 44.457031 79.917969 44.582031 79.308594 L 44.625 79.097656 C 45.285156 75.683594 45.949219 72.273438 46.617188 68.859375 L 48.226562 60.601562 C 48.203125 60.277344 48.25 59.953125 48.363281 59.648438 C 48.472656 59.34375 48.648438 59.066406 48.871094 58.832031 C 49.125 58.566406 49.433594 58.355469 49.777344 58.214844 C 50.117188 58.078125 50.484375 58.011719 50.855469 58.023438 L 61.835938 58.023438 C 62.976562 57.988281 64.105469 58.269531 65.097656 58.832031 C 66.089844 59.394531 66.90625 60.21875 67.460938 61.214844 C 68.238281 62.628906 68.566406 64.25 68.398438 65.855469 C 68.15625 68.574219 66.953125 71.121094 65.007812 73.035156 L 64.949219 73.085938 C 63.351562 74.429688 61.398438 75.277344 59.324219 75.53125 C 58.363281 75.554688 57.414062 75.574219 56.480469 75.589844 L 53.667969 75.652344 L 53.609375 75.652344 C 52.855469 75.585938 51.90625 75.726562 51.734375 76.355469 C 51.566406 76.984375 51.429688 77.5 51.265625 78.074219 C 51.101562 78.652344 50.976562 79.246094 50.796875 79.84375 C 50.664062 80.175781 50.460938 80.476562 50.195312 80.71875 C 49.929688 80.964844 49.613281 81.144531 49.269531 81.25 L 49.179688 81.285156 L 49.085938 81.285156 L 47.46875 81.308594 L 45.835938 81.332031 Z M 45.464844 80.289062 C 45.578125 80.320312 45.699219 80.332031 45.820312 80.320312 L 47.46875 80.296875 L 48.980469 80.296875 C 49.484375 80.070312 49.777344 79.832031 49.855469 79.574219 C 50.019531 79 50.160156 78.425781 50.324219 77.851562 C 50.488281 77.273438 50.617188 76.679688 50.792969 76.085938 C 51.097656 75.085938 52.199219 74.546875 53.703125 74.679688 L 56.488281 74.621094 L 59.300781 74.558594 C 61.167969 74.316406 62.921875 73.546875 64.363281 72.335938 C 66.128906 70.59375 67.222656 68.28125 67.453125 65.8125 C 67.601562 64.386719 67.308594 62.949219 66.617188 61.691406 C 66.132812 60.863281 65.433594 60.179688 64.59375 59.714844 C 63.753906 59.25 62.804688 59.019531 61.847656 59.046875 L 50.832031 59.046875 C 50.601562 59.039062 50.371094 59.078125 50.160156 59.164062 C 49.945312 59.25 49.753906 59.382812 49.597656 59.550781 C 49.460938 59.6875 49.355469 59.855469 49.292969 60.039062 C 49.226562 60.222656 49.203125 60.417969 49.222656 60.609375 L 49.222656 60.75 L 47.601562 69.078125 L 45.609375 79.316406 L 45.5625 79.539062 C 45.488281 79.789062 45.457031 80.054688 45.46875 80.316406 Z M 55.082031 71.792969 L 54.585938 71.792969 C 54.191406 71.800781 53.796875 71.734375 53.429688 71.589844 C 53.058594 71.445312 52.722656 71.230469 52.4375 70.953125 C 52.023438 70.398438 52.058594 69.65625 52.273438 68.480469 L 52.445312 67.542969 L 52.476562 67.574219 C 52.640625 66.734375 52.820312 65.875 52.984375 65.0625 L 53.324219 63.453125 C 53.519531 62.933594 53.875 62.488281 54.339844 62.183594 C 54.808594 61.882812 55.355469 61.734375 55.914062 61.765625 C 57.097656 61.6875 58.285156 61.847656 59.40625 62.234375 C 59.902344 62.410156 60.355469 62.691406 60.734375 63.054688 C 61.117188 63.414062 61.417969 63.855469 61.617188 64.339844 C 61.835938 64.925781 61.9375 65.550781 61.914062 66.171875 C 61.890625 66.796875 61.742188 67.410156 61.476562 67.976562 L 61.445312 68.039062 C 60.539062 69.722656 59.003906 70.976562 57.171875 71.53125 C 56.488281 71.699219 55.785156 71.785156 55.078125 71.792969 Z M 53.148438 69.394531 C 53.070312 69.707031 53.105469 70.039062 53.246094 70.332031 C 53.410156 70.546875 53.867188 70.6875 54.6875 70.777344 C 55.441406 70.8125 56.191406 70.734375 56.921875 70.546875 C 57.699219 70.308594 58.425781 69.917969 59.050781 69.398438 C 59.679688 68.882812 60.199219 68.242188 60.582031 67.523438 C 60.785156 67.085938 60.902344 66.613281 60.921875 66.128906 C 60.941406 65.644531 60.867188 65.164062 60.699219 64.710938 C 60.546875 64.351562 60.320312 64.03125 60.039062 63.761719 C 59.753906 63.496094 59.417969 63.289062 59.054688 63.160156 C 58.039062 62.816406 56.964844 62.679688 55.894531 62.761719 C 55.539062 62.730469 55.183594 62.820312 54.886719 63.015625 C 54.589844 63.214844 54.367188 63.503906 54.253906 63.839844 L 53.96875 65.246094 C 53.742188 66.351562 53.5 67.554688 53.289062 68.664062 Z M 53.148438 69.394531 "/>
<path style=" stroke:none;fill-rule:nonzero;fill:rgb(21.568628%,20.392157%,20.784314%);fill-opacity:1;" d="M 86.929688 79.191406 C 88.125 72.992188 89.34375 66.796875 90.542969 60.625 C 90.527344 60.34375 90.570312 60.0625 90.671875 59.800781 C 90.773438 59.539062 90.925781 59.300781 91.125 59.101562 C 91.324219 58.902344 91.5625 58.746094 91.824219 58.648438 C 92.085938 58.546875 92.367188 58.503906 92.648438 58.519531 L 103.65625 58.519531 C 104.703125 58.488281 105.742188 58.742188 106.65625 59.257812 C 107.570312 59.773438 108.324219 60.527344 108.84375 61.4375 C 109.578125 62.773438 109.886719 64.300781 109.730469 65.816406 C 109.492188 68.417969 108.339844 70.855469 106.476562 72.683594 C 104.949219 73.96875 103.078125 74.785156 101.09375 75.027344 C 99.21875 75.074219 97.34375 75.097656 95.46875 75.148438 C 94.390625 75.054688 93.320312 75.34375 93.054688 76.203125 C 92.722656 77.375 92.484375 78.546875 92.148438 79.695312 C 92.03125 79.957031 91.859375 80.1875 91.644531 80.371094 C 91.429688 80.558594 91.175781 80.695312 90.90625 80.773438 C 89.828125 80.796875 88.730469 80.796875 87.652344 80.820312 C 86.5 80.839844 86.71875 80.15625 86.929688 79.191406 Z M 94.609375 68.570312 C 94.917969 66.941406 95.300781 65.101562 95.585938 63.664062 C 95.738281 63.234375 96.027344 62.863281 96.40625 62.613281 C 96.785156 62.359375 97.238281 62.234375 97.691406 62.257812 C 98.828125 62.175781 99.96875 62.324219 101.042969 62.691406 C 101.515625 62.882812 101.941406 63.167969 102.292969 63.535156 C 102.644531 63.90625 102.914062 64.34375 103.085938 64.820312 C 103.253906 65.300781 103.320312 65.8125 103.277344 66.320312 C 103.234375 66.824219 103.085938 67.316406 102.839844 67.761719 C 102.421875 68.542969 101.855469 69.238281 101.167969 69.800781 C 100.484375 70.363281 99.695312 70.785156 98.84375 71.042969 C 98.066406 71.242188 97.257812 71.324219 96.453125 71.28125 C 94.398438 71.066406 94.226562 70.519531 94.578125 68.554688 Z M 94.609375 68.570312 "/>
<path style=" stroke:none;fill-rule:nonzero;fill:rgb(99.607843%,99.607843%,99.607843%);fill-opacity:1;" d="M 87.59375 81.320312 C 87.394531 81.339844 87.195312 81.316406 87.003906 81.246094 C 86.816406 81.175781 86.648438 81.066406 86.507812 80.921875 C 86.152344 80.492188 86.273438 79.917969 86.398438 79.308594 L 86.441406 79.097656 C 87.097656 75.695312 87.757812 72.292969 88.425781 68.898438 L 90.042969 60.601562 C 90.023438 60.277344 90.070312 59.953125 90.179688 59.648438 C 90.292969 59.34375 90.464844 59.066406 90.6875 58.832031 C 90.945312 58.566406 91.253906 58.355469 91.59375 58.214844 C 91.9375 58.078125 92.304688 58.011719 92.671875 58.023438 L 103.65625 58.023438 C 104.796875 57.988281 105.921875 58.269531 106.914062 58.832031 C 107.90625 59.394531 108.722656 60.21875 109.28125 61.214844 C 110.054688 62.628906 110.382812 64.25 110.21875 65.855469 C 109.972656 68.574219 108.769531 71.121094 106.824219 73.035156 L 106.765625 73.085938 C 105.167969 74.429688 103.214844 75.277344 101.140625 75.53125 C 100.179688 75.554688 99.230469 75.574219 98.296875 75.589844 L 95.484375 75.652344 L 95.429688 75.652344 C 94.667969 75.585938 93.722656 75.726562 93.554688 76.355469 C 93.382812 76.984375 93.25 77.5 93.085938 78.070312 C 92.921875 78.640625 92.792969 79.246094 92.617188 79.835938 C 92.484375 80.171875 92.277344 80.472656 92.011719 80.714844 C 91.746094 80.957031 91.429688 81.140625 91.085938 81.242188 L 91 81.28125 L 90.90625 81.28125 L 89.289062 81.304688 L 87.652344 81.328125 Z M 87.28125 80.289062 C 87.398438 80.320312 87.519531 80.332031 87.636719 80.320312 L 89.289062 80.296875 L 90.796875 80.296875 C 91.304688 80.070312 91.59375 79.832031 91.671875 79.574219 L 92.140625 77.851562 C 92.375 76.992188 92.433594 76.683594 92.609375 76.09375 C 92.914062 75.089844 94.015625 74.550781 95.523438 74.6875 L 98.304688 74.625 L 101.117188 74.5625 C 102.984375 74.324219 104.742188 73.550781 106.179688 72.34375 C 107.945312 70.597656 109.039062 68.289062 109.269531 65.816406 C 109.417969 64.390625 109.128906 62.953125 108.4375 61.695312 C 107.949219 60.867188 107.253906 60.183594 106.414062 59.71875 C 105.574219 59.253906 104.625 59.023438 103.664062 59.054688 L 92.648438 59.054688 C 92.417969 59.042969 92.191406 59.082031 91.976562 59.167969 C 91.765625 59.253906 91.574219 59.386719 91.414062 59.554688 C 91.277344 59.691406 91.175781 59.859375 91.109375 60.042969 C 91.042969 60.226562 91.019531 60.421875 91.039062 60.613281 L 91.039062 60.753906 L 89.414062 69.121094 L 87.429688 79.320312 L 87.382812 79.542969 C 87.308594 79.792969 87.277344 80.058594 87.289062 80.320312 Z M 96.898438 71.792969 L 96.402344 71.792969 C 96.007812 71.800781 95.613281 71.734375 95.246094 71.589844 C 94.878906 71.445312 94.542969 71.230469 94.257812 70.953125 C 93.839844 70.398438 93.875 69.65625 94.09375 68.480469 L 94.261719 67.542969 L 94.292969 67.574219 C 94.457031 66.730469 94.636719 65.863281 94.800781 65.046875 L 95.140625 63.449219 C 95.332031 62.925781 95.6875 62.480469 96.15625 62.175781 C 96.621094 61.871094 97.175781 61.726562 97.730469 61.761719 C 98.914062 61.683594 100.101562 61.84375 101.222656 62.230469 C 101.71875 62.40625 102.171875 62.6875 102.550781 63.046875 C 102.933594 63.410156 103.234375 63.847656 103.433594 64.335938 C 103.65625 64.921875 103.757812 65.542969 103.730469 66.167969 C 103.707031 66.792969 103.558594 67.40625 103.292969 67.972656 L 103.261719 68.035156 C 102.355469 69.71875 100.820312 70.972656 98.992188 71.527344 C 98.304688 71.695312 97.605469 71.785156 96.898438 71.792969 Z M 94.960938 69.398438 C 94.882812 69.714844 94.917969 70.042969 95.058594 70.335938 C 95.222656 70.550781 95.679688 70.691406 96.5 70.78125 C 97.253906 70.816406 98.003906 70.738281 98.734375 70.550781 C 99.511719 70.3125 100.238281 69.925781 100.863281 69.40625 C 101.492188 68.886719 102.011719 68.25 102.394531 67.527344 C 102.597656 67.089844 102.714844 66.617188 102.734375 66.132812 C 102.753906 65.652344 102.679688 65.167969 102.511719 64.714844 C 102.359375 64.355469 102.132812 64.035156 101.851562 63.765625 C 101.566406 63.5 101.230469 63.292969 100.867188 63.164062 C 99.851562 62.820312 98.777344 62.683594 97.707031 62.765625 C 97.351562 62.738281 96.996094 62.828125 96.699219 63.023438 C 96.402344 63.21875 96.179688 63.507812 96.066406 63.84375 L 95.78125 65.25 C 95.554688 66.359375 95.3125 67.570312 95.101562 68.675781 Z M 94.960938 69.398438 "/>
<path style=" stroke:none;fill-rule:nonzero;fill:rgb(92.156863%,93.725491%,100%);fill-opacity:1;" d="M 16.054688 107.371094 C 15.492188 106.835938 15.019531 106.214844 14.648438 105.53125 C 14.066406 104.476562 13.789062 103.285156 13.835938 102.085938 C 12.617188 81.304688 13.691406 63.132812 20.316406 48.28125 C 21.125 46.460938 21.253906 45.914062 22.945312 45.074219 C 28.113281 43.175781 33.660156 42.53125 39.125 43.199219 C 39.296875 42.730469 39.628906 42.261719 39.484375 41.792969 C 34.535156 41.402344 29.558594 41.796875 24.734375 42.964844 C 21.453125 43.492188 18.257812 44.066406 17.46875 49.28125 C 10.851562 66.804688 11.328125 83.40625 12.019531 99.710938 C 12.011719 100.890625 12.1875 102.058594 12.542969 103.179688 C 13.832031 107.292969 15.078125 107.152344 16.058594 107.367188 Z M 41.476562 104.769531 C 41.476562 100.445312 41.117188 96.117188 41.117188 91.773438 C 40.945312 89.292969 40.40625 86.851562 39.519531 84.53125 C 38.5625 82.839844 37.464844 81.234375 36.238281 79.726562 C 39.957031 86.804688 41.117188 94.953125 39.519531 102.789062 C 40.1875 103.453125 40.78125 104.121094 41.476562 104.769531 Z M 41.476562 104.769531 "/>
<path style=" stroke:none;fill-rule:nonzero;fill:rgb(21.568628%,20.392157%,20.784314%);fill-opacity:1;" d="M 41.832031 105.628906 L 41.5 105.503906 C 40.25 104.964844 39.175781 104.082031 38.40625 102.960938 L 38.082031 102.554688 L 38.386719 102.554688 C 38.457031 101.003906 38.429688 99.582031 38.386719 98.203125 C 38.359375 96.75 38.324219 95.25 38.410156 93.601562 L 38.410156 93.324219 L 38.6875 93.367188 C 39.449219 93.441406 40.171875 93.753906 40.75 94.257812 C 41.332031 94.761719 41.738281 95.433594 41.921875 96.179688 L 41.921875 96.253906 L 41.859375 100.730469 L 41.796875 105.277344 Z M 38.875 102.75 C 39.515625 103.648438 40.359375 104.386719 41.339844 104.898438 C 41.339844 103.414062 41.375 102.085938 41.394531 100.71875 C 41.394531 99.3125 41.433594 97.875 41.457031 96.28125 C 41.3125 95.679688 40.992188 95.132812 40.539062 94.710938 C 40.085938 94.292969 39.515625 94.011719 38.90625 93.914062 C 38.839844 95.433594 38.867188 96.835938 38.90625 98.195312 C 38.90625 99.632812 38.953125 101.117188 38.875 102.75 Z M 38.875 102.75 "/>
<path style=" stroke:none;fill-rule:nonzero;fill:rgb(92.156863%,93.725491%,100%);fill-opacity:1;" d="M 48.054688 110.890625 C 47.078125 110.507812 46.253906 109.808594 45.710938 108.910156 C 45.550781 101.179688 45.394531 93.445312 45.242188 85.710938 L 46.421875 86.882812 C 46.683594 88.511719 46.804688 90.160156 46.78125 91.808594 L 47.140625 92.746094 C 47.136719 98.808594 47.441406 104.863281 48.054688 110.890625 Z M 48.054688 110.890625 "/>
<path style=" stroke:none;fill-rule:nonzero;fill:rgb(21.568628%,20.392157%,20.784314%);fill-opacity:1;" d="M 48.445312 112.609375 L 48.117188 112.5 C 46.75 112.023438 45.621094 111.039062 44.960938 109.753906 L 44.929688 109.6875 L 44.929688 109.59375 C 44.929688 107.019531 44.976562 104.359375 44.976562 101.753906 L 44.976562 101.6875 L 45.007812 101.628906 C 45.71875 100.339844 46.328125 99.511719 46.992188 99.640625 C 47.511719 99.746094 48.097656 100.351562 48.492188 104.023438 C 48.492188 106.757812 48.445312 109.542969 48.445312 112.265625 Z M 45.429688 109.5625 C 45.984375 110.601562 46.871094 111.429688 47.949219 111.90625 C 47.949219 109.292969 47.972656 106.636719 47.996094 104.058594 C 47.628906 100.640625 47.105469 100.171875 46.898438 100.128906 C 46.691406 100.085938 46.289062 100.351562 45.492188 101.8125 C 45.46875 104.390625 45.46875 107.019531 45.429688 109.566406 Z M 45.429688 109.5625 "/>
<path style=" stroke:none;fill-rule:nonzero;fill:rgb(21.568628%,20.392157%,20.784314%);fill-opacity:1;" d="M 39.84375 84.640625 C 39.859375 84.246094 39.800781 83.847656 39.675781 83.46875 C 39.867188 83.515625 40.058594 83.539062 40.246094 83.59375 L 43.28125 86.058594 C 43.703125 85.878906 44.035156 85.542969 44.21875 85.121094 C 44.410156 85.117188 44.597656 85.15625 44.773438 85.238281 C 44.945312 85.320312 45.097656 85.441406 45.21875 85.589844 C 45.265625 87.554688 45.125 89.488281 45.171875 91.449219 C 45.488281 91.71875 45.691406 92.09375 45.746094 92.503906 C 47 92.550781 48.253906 92.671875 49.496094 92.863281 C 49.566406 93.171875 49.664062 93.367188 49.734375 93.679688 C 48.332031 93.519531 46.917969 93.519531 45.515625 93.679688 L 45.515625 94.566406 C 46.613281 94.507812 47.71875 94.585938 48.796875 94.804688 L 48.914062 95.453125 C 47.746094 95.308594 46.566406 95.324219 45.402344 95.5 C 45.574219 100.320312 45.574219 105.148438 45.402344 109.972656 C 45.019531 109.0625 44.28125 108.179688 43.875 107.269531 C 44.601562 101.082031 44.699219 94.835938 44.160156 88.632812 C 43.046875 86.988281 41.570312 85.621094 39.84375 84.640625 Z M 39.84375 84.640625 "/>
<path style=" stroke:none;fill-rule:nonzero;fill:rgb(21.568628%,20.392157%,20.784314%);fill-opacity:1;" d="M 44.738281 110.269531 C 44.53125 109.820312 44.285156 109.394531 44.011719 108.984375 C 43.710938 108.535156 43.445312 108.066406 43.214844 107.578125 L 43.125 107.386719 L 43.152344 107.175781 C 43.863281 101.105469 43.960938 94.980469 43.445312 88.894531 C 42.386719 87.421875 41.023438 86.195312 39.449219 85.296875 L 39.027344 85.027344 L 39.121094 84.53125 C 39.128906 84.347656 39.097656 84.167969 39.039062 84 L 38.953125 83.628906 L 38.738281 82.480469 L 39.871094 82.761719 L 40.117188 82.8125 C 40.222656 82.8125 40.335938 82.855469 40.445312 82.882812 L 40.601562 82.925781 L 43.339844 85.148438 C 43.417969 85.070312 43.476562 84.980469 43.523438 84.882812 L 43.707031 84.414062 L 44.226562 84.414062 C 44.539062 84.410156 44.847656 84.484375 45.128906 84.621094 C 45.410156 84.761719 45.65625 84.964844 45.84375 85.214844 L 45.96875 85.398438 L 45.96875 85.621094 C 45.992188 86.621094 45.96875 87.625 45.945312 88.589844 C 45.945312 89.445312 45.90625 90.332031 45.917969 91.203125 C 46.078125 91.390625 46.214844 91.597656 46.320312 91.820312 C 47.101562 91.851562 47.867188 91.953125 48.617188 92.046875 L 49.585938 92.164062 L 50.109375 92.226562 L 50.226562 92.742188 L 50.324219 93.078125 C 50.375 93.21875 50.421875 93.375 50.464844 93.546875 L 50.695312 94.542969 L 49.679688 94.460938 L 49.496094 94.460938 L 49.835938 96.335938 L 48.847656 96.234375 C 47.960938 96.136719 47.070312 96.121094 46.179688 96.191406 C 46.328125 100.808594 46.328125 105.425781 46.179688 110.039062 Z M 44.671875 107.15625 L 44.761719 107.324219 L 44.761719 106.296875 C 44.738281 106.585938 44.710938 106.871094 44.671875 107.15625 Z M 43.664062 86.71875 C 43.960938 87.035156 44.234375 87.371094 44.484375 87.726562 L 44.484375 86.105469 C 44.25 86.359375 43.972656 86.566406 43.664062 86.71875 Z M 43.664062 86.71875 "/>
<path style=" stroke:none;fill-rule:nonzero;fill:rgb(92.156863%,93.725491%,100%);fill-opacity:1;" d="M 42.753906 42.019531 C 44.917969 41.730469 47 41.015625 48.882812 39.914062 C 52.609375 37.828125 56.769531 36.625 61.035156 36.398438 C 59.269531 35.601562 57.285156 35.4375 55.410156 35.929688 C 50.8125 37.050781 46.5 39.125 42.753906 42.019531 Z M 66.160156 39.421875 C 76.421875 36.460938 87.375 36.957031 97.332031 40.828125 C 87.542969 36.527344 76.558594 35.785156 66.28125 38.734375 C 66.277344 39.210938 66.160156 38.972656 66.160156 39.421875 Z M 66.160156 39.421875 "/>
</g>
</svg>
