<svg width="139" height="83" viewBox="0 0 139 83" fill="none" xmlns="http://www.w3.org/2000/svg">
<path d="M69.6667 0C51.2222 0 39.6944 9.22222 35.0833 27.6667C42 18.4444 50.0694 14.9861 59.2917 17.2917C64.5535 18.6071 68.3143 22.4243 72.4771 26.6499C79.2585 33.5333 87.1072 41.5 104.25 41.5C122.694 41.5 134.222 32.2778 138.833 13.8333C131.917 23.0556 123.847 26.5139 114.625 24.2083C109.363 22.8929 105.602 19.0757 101.44 14.8501C94.6581 7.96672 86.8095 0 69.6667 0ZM35.0833 41.5C16.6389 41.5 5.11111 50.7222 0.5 69.1667C7.41667 59.9444 15.4861 56.4861 24.7083 58.7917C29.9701 60.1071 33.731 63.9243 37.8938 68.1499C44.6752 75.0333 52.5238 83 69.6667 83C88.1111 83 99.6389 73.7778 104.25 55.3333C97.3333 64.5556 89.2639 68.0139 80.0417 65.7083C74.7799 64.3929 71.019 60.5757 66.8562 56.3501C60.0748 49.4667 52.2262 41.5 35.0833 41.5Z" fill="url(#paint0_linear_4_409)"/>
<defs>
<linearGradient id="paint0_linear_4_409" x1="-983.204" y1="4090.24" x2="32912.4" y2="15846.8" gradientUnits="userSpaceOnUse">
<stop stop-color="#2298BD"/>
<stop offset="1" stop-color="#0ED7B5"/>
</linearGradient>
</defs>
</svg>
