<svg width="98" height="99" viewBox="0 0 98 99" fill="none" xmlns="http://www.w3.org/2000/svg">
<path fill-rule="evenodd" clip-rule="evenodd" d="M0.5 49.4506C0.5 22.1398 22.3083 0 49.2102 0C76.1121 0 97.9204 22.1398 97.9204 49.4506C97.9204 76.7614 76.1121 98.9012 49.2102 98.9012C22.3083 98.9012 0.5 76.7614 0.5 49.4506Z" fill="#0DADEA"/>
<path fill-rule="evenodd" clip-rule="evenodd" d="M22.2332 31.5292L42.1571 28.742V48.3108H22.2345L22.2332 31.5292ZM42.1571 50.8152V70.1626L22.2356 67.3793L22.2345 50.8161L42.1571 50.8152ZM44.3611 28.4343L70.8731 24.7252V48.3108H44.3611V28.4343ZM70.8731 50.8152V74.1758L44.3611 70.4703V50.8152H70.8731Z" fill="#DBDBDB"/>
<path fill-rule="evenodd" clip-rule="evenodd" d="M97.9204 49.4507C97.9204 76.7615 76.1122 98.9012 49.2102 98.9012C39.233 98.9012 29.9563 95.8559 22.2332 90.6311L78.0467 9.59253C90.0993 18.5946 97.9204 33.0954 97.9204 49.4507Z" fill="black" fill-opacity="0.08"/>
</svg>
